<?xml version="1.0" encoding="utf-8"?>
<!-- Generator: Adobe Illustrator 21.0.0, SVG Export Plug-In . SVG Version: 6.00 Build 0)  -->
<svg version="1.1" id="Capa_1" xmlns="http://www.w3.org/2000/svg" xmlns:xlink="http://www.w3.org/1999/xlink" x="0px" y="0px"
	 width="512px" height="512px" viewBox="0 0 512 512" style="enable-background:new 0 0 512 512;" xml:space="preserve">
<style type="text/css">
	.st0{fill:#F4DE8B;}
	.st1{fill:url(#SVGID_1_);}
</style>
<g>
	<g>
		<path class="st0" d="M280.7,0C251.1,0,223,6.6,198,18.5C131.8,49.2,86,116.1,86,193.9l0,0v25.9v6.2l-39.5,75.3
			c-10,19-0.5,34.6,20.9,34.6H86v0.4v32.8v38.3c0,22.3,18.3,40.7,40.7,40.7l55.9-8.3l0.1,55.9v0.4l0,0c0.3,7.2,6.3,11.9,13.8,10.6
			l201.3-35.6c7.6-1.4,13.8-8.7,13.8-16.4v-8.8v-7.1V336.4c38.5-35.4,62.7-86.2,62.7-142.7C474.3,86.6,387.6,0,280.7,0z M323,176.9
			c-19.5,33.9-39.1,67.7-58.7,101.6c-0.1,0.1-0.2,0.2-0.2,0.4c-1.4,2.5-2.9,4.9-6.2,3.6c-3.4-1.2-2.6-4.3-2.2-6.9
			c1.6-8.5,3.1-17,4.8-25.6c2.8-15,5.7-29.9,8.5-44.9c0.2-1.2,0.3-2.6,0.5-4.4c-1.9-0.1-3.4-0.2-5-0.2c-11,0-22.1,0.1-33.1,0.1
			c-6.5,0-8-2.7-4.8-8.4c19.5-33.9,39.1-67.7,58.7-101.6c0.1-0.1,0.2-0.2,0.2-0.4c1.4-2.5,2.9-4.9,6.2-3.6c3.4,1.2,2.6,4.3,2.2,6.9
			c-1.6,8.5-3.1,17-4.8,25.6c-2.8,15-5.7,29.9-8.5,44.9c-0.2,1.2-0.3,2.6-0.5,4.4c1.9,0.1,3.4,0.2,5,0.2c11,0,22.1-0.1,33.1-0.1
			C324.7,168.5,326.3,171.2,323,176.9z"/>
	</g>
	<g>
		<linearGradient id="SVGID_1_" gradientUnits="userSpaceOnUse" x1="10.986" y1="525.9614" x2="517.986" y2="17.9614">
			<stop  offset="0" style="stop-color:#A1812E"/>
			<stop  offset="0.5" style="stop-color:#CFAD56"/>
			<stop  offset="1" style="stop-color:#F4DE8B"/>
		</linearGradient>
		<path class="st1" d="M275.7,5C246.1,5,218,11.6,193,23.5C126.8,54.2,81,121.1,81,198.9l0,0v25.9v6.2l-39.5,75.3
			c-10,19-0.5,34.6,20.9,34.6H81v0.4v32.8v38.3c0,22.3,18.3,40.7,40.7,40.7l55.9-8.3l0.1,55.9v0.4l0,0c0.3,7.2,6.3,11.9,13.8,10.6
			l201.3-35.6c7.6-1.4,13.8-8.7,13.8-16.4v-8.8v-7.1V341.4c38.5-35.4,62.7-86.2,62.7-142.7C469.3,91.6,382.6,5,275.7,5z M318,181.9
			c-19.5,33.9-39.1,67.7-58.7,101.6c-0.1,0.1-0.2,0.2-0.2,0.4c-1.4,2.5-2.9,4.9-6.2,3.6c-3.4-1.2-2.6-4.3-2.2-6.9
			c1.6-8.5,3.1-17,4.8-25.6c2.8-15,5.7-29.9,8.5-44.9c0.2-1.2,0.3-2.6,0.5-4.4c-1.9-0.1-3.4-0.2-5-0.2c-11,0-22.1,0.1-33.1,0.1
			c-6.5,0-8-2.7-4.8-8.4c19.5-33.9,39.1-67.7,58.7-101.6c0.1-0.1,0.2-0.2,0.2-0.4c1.4-2.5,2.9-4.9,6.2-3.6c3.4,1.2,2.6,4.3,2.2,6.9
			c-1.6,8.5-3.1,17-4.8,25.6c-2.8,15-5.7,29.9-8.5,44.9c-0.2,1.2-0.3,2.6-0.5,4.4c1.9,0.1,3.4,0.2,5,0.2c11,0,22.1-0.1,33.1-0.1
			C319.7,173.5,321.3,176.2,318,181.9z"/>
	</g>
</g>
</svg>
