<?xml version="1.0" encoding="utf-8"?>
<!-- Generator: Adobe Illustrator 21.0.0, SVG Export Plug-In . SVG Version: 6.00 Build 0)  -->
<svg version="1.1" id="Capa_1" xmlns="http://www.w3.org/2000/svg" xmlns:xlink="http://www.w3.org/1999/xlink" x="0px" y="0px"
	 width="512px" height="512px" viewBox="0 0 512 512" style="enable-background:new 0 0 512 512;" xml:space="preserve">
<style type="text/css">
	.st0{fill:#F4DE8B;}
	.st1{fill:url(#SVGID_1_);}
</style>
<g>
	<path class="st0" d="M372.3,228c-4.3,8-12.2,13-20.8,13h-186c-8.6,0-16.5-5-20.8-13c-4.3-8-4.3-18,0-26l46.5-87.3
		c4.3-8,12.2-13,20.8-13h93c8.6,0,16.5,5,20.8,13l46.5,87.3C376.6,210.1,376.6,220,372.3,228z M235.8,361.3L189.3,274
		c-4.3-8-12.2-13-20.8-13h-93c-8.6,0-16.5,5-20.8,13L8.2,361.3c-4.3,8-4.3,18,0,26c4.3,8,12.2,13,20.8,13h186c8.6,0,16.5-5,20.8-13
		C240.1,379.2,240.1,369.3,235.8,361.3z M508.8,361.3L462.3,274c-4.3-8-12.2-13-20.8-13h-93c-8.6,0-16.5,5-20.8,13l-46.5,87.2
		c-4.3,8-4.3,18,0,26c4.3,8,12.2,13,20.8,13h186c8.6,0,16.5-5,20.8-13C513.1,379.2,513.1,369.3,508.8,361.3z"/>
	<linearGradient id="SVGID_1_" gradientUnits="userSpaceOnUse" x1="26.8503" y1="466.1472" x2="518.8503" y2="141.1472">
		<stop  offset="0" style="stop-color:#A1812E"/>
		<stop  offset="0.5" style="stop-color:#CFAD56"/>
		<stop  offset="1" style="stop-color:#F4DE8B"/>
	</linearGradient>
	<path class="st1" d="M367.3,233c-4.3,8-12.2,13-20.8,13h-186c-8.6,0-16.5-5-20.8-13c-4.3-8-4.3-18,0-26l46.5-87.3
		c4.3-8,12.2-13,20.8-13h93c8.6,0,16.5,5,20.8,13l46.5,87.3C371.6,215.1,371.6,225,367.3,233z M230.8,366.3L184.3,279
		c-4.3-8-12.2-13-20.8-13h-93c-8.6,0-16.5,5-20.8,13L3.2,366.3c-4.3,8-4.3,18,0,26c4.3,8,12.2,13,20.8,13h186c8.6,0,16.5-5,20.8-13
		C235.1,384.2,235.1,374.3,230.8,366.3z M503.8,366.3L457.3,279c-4.3-8-12.2-13-20.8-13h-93c-8.6,0-16.5,5-20.8,13l-46.5,87.2
		c-4.3,8-4.3,18,0,26c4.3,8,12.2,13,20.8,13h186c8.6,0,16.5-5,20.8-13C508.1,384.2,508.1,374.3,503.8,366.3z"/>
</g>
</svg>
