<?xml version="1.0" encoding="utf-8"?>
<!-- Generator: Adobe Illustrator 21.0.0, SVG Export Plug-In . SVG Version: 6.00 Build 0)  -->
<svg version="1.1" id="Capa_1" xmlns="http://www.w3.org/2000/svg" xmlns:xlink="http://www.w3.org/1999/xlink" x="0px" y="0px"
	 width="512px" height="512px" viewBox="0 0 512 512" style="enable-background:new 0 0 512 512;" xml:space="preserve">
<style type="text/css">
	.st0{fill:#F4DE8B;}
	.st1{fill:url(#SVGID_1_);}
	.st2{fill:url(#SVGID_2_);}
	.st3{fill:url(#SVGID_3_);}
</style>
<g>
	<g>
		<g>
			<g>
				<path class="st0" d="M36.7,269v190.1c0,17.5,14.2,31.7,31.7,31.7h158.4V269H36.7z"/>
			</g>
		</g>
		<g>
			<g>
				<path class="st0" d="M480.3,142.3H380.1c7.2-4.9,13.4-9.8,17.7-14.2c25.6-25.7,25.6-67.5,0-93.2c-24.8-25-68.1-25-92.9,0
					c-13.8,13.8-50.2,69.9-45.2,107.4h-2.3c5-37.5-31.4-93.6-45.2-107.4c-24.8-25-68.1-25-92.9,0c-25.5,25.7-25.5,67.5,0,93.2
					c4.3,4.4,10.5,9.3,17.7,14.2H36.7C19.2,142.3,5,156.5,5,174v47.5c0,8.7,7.1,15.8,15.8,15.8h206V174h63.4v63.4h206
					c8.7,0,15.8-7.1,15.8-15.8V174C512,156.5,497.8,142.3,480.3,142.3z M224.9,141.2c0,0-1.3,1-5.9,1c-21.9,0-63.7-22.8-77.3-36.5
					c-13.3-13.4-13.3-35.2,0-48.5c6.4-6.5,15-10,24-10c9,0,17.6,3.5,24,10C211.1,78.7,232.3,133.6,224.9,141.2z M297.9,142.3
					c-4.5,0-5.8-1-5.8-1c-7.4-7.6,13.8-62.5,35.2-84c12.8-12.9,35.1-13,48,0c13.3,13.4,13.3,35.2,0,48.5
					C361.6,119.5,319.8,142.3,297.9,142.3z"/>
			</g>
		</g>
		<g>
			<g>
				<path class="st0" d="M290.2,269v221.8h158.4c17.5,0,31.7-14.2,31.7-31.7V269H290.2z"/>
			</g>
		</g>
	</g>
	<g>
		<g>
			<g>
				<linearGradient id="SVGID_1_" gradientUnits="userSpaceOnUse" x1="-2.0334" y1="512.9724" x2="509.9666" y2="3.9782">
					<stop  offset="0" style="stop-color:#A1812E"/>
					<stop  offset="0.5" style="stop-color:#CFAD56"/>
					<stop  offset="1" style="stop-color:#F4DE8B"/>
				</linearGradient>
				<path class="st1" d="M31.7,274v190.1c0,17.5,14.2,31.7,31.7,31.7h158.4V274H31.7z"/>
			</g>
		</g>
		<g>
			<g>
				<linearGradient id="SVGID_2_" gradientUnits="userSpaceOnUse" x1="-34.8551" y1="479.9568" x2="477.145" y2="-29.0373">
					<stop  offset="0" style="stop-color:#A1812E"/>
					<stop  offset="0.5" style="stop-color:#CFAD56"/>
					<stop  offset="1" style="stop-color:#F4DE8B"/>
				</linearGradient>
				<path class="st2" d="M475.3,147.3H375c7.2-4.9,13.4-9.8,17.7-14.2c25.6-25.7,25.6-67.5,0-93.2c-24.8-25-68.1-25-92.9,0
					c-13.8,13.8-50.2,69.9-45.2,107.4h-2.3c5-37.5-31.4-93.6-45.2-107.4c-24.8-25-68.1-25-92.9,0c-25.5,25.7-25.5,67.5,0,93.2
					c4.3,4.4,10.5,9.3,17.7,14.2H31.7C14.2,147.3,0,161.5,0,179v47.5c0,8.7,7.1,15.8,15.8,15.8h206V179h63.4v63.4h206
					c8.7,0,15.8-7.1,15.8-15.8V179C507,161.5,492.8,147.3,475.3,147.3z M219.9,146.3c0,0-1.3,1-5.9,1c-21.9,0-63.7-22.8-77.3-36.5
					c-13.3-13.4-13.3-35.2,0-48.5c6.4-6.5,15-10,24-10c9,0,17.6,3.5,24,10C206.1,83.7,227.3,138.6,219.9,146.3z M292.9,147.3
					c-4.5,0-5.8-1-5.8-1c-7.4-7.6,13.8-62.5,35.2-84c12.8-12.9,35.1-13,48,0c13.3,13.4,13.3,35.2,0,48.5
					C356.6,124.5,314.8,147.3,292.9,147.3z"/>
			</g>
		</g>
		<g>
			<g>
				<linearGradient id="SVGID_3_" gradientUnits="userSpaceOnUse" x1="119.3395" y1="635.062" x2="631.3395" y2="126.0678">
					<stop  offset="0" style="stop-color:#A1812E"/>
					<stop  offset="0.5" style="stop-color:#CFAD56"/>
					<stop  offset="1" style="stop-color:#F4DE8B"/>
				</linearGradient>
				<path class="st3" d="M285.2,274v221.8h158.4c17.5,0,31.7-14.2,31.7-31.7V274H285.2z"/>
			</g>
		</g>
	</g>
</g>
</svg>
