<?xml version="1.0" encoding="utf-8"?>
<!-- Generator: Adobe Illustrator 21.0.0, SVG Export Plug-In . SVG Version: 6.00 Build 0)  -->
<svg version="1.1" id="Слой_1" xmlns="http://www.w3.org/2000/svg" xmlns:xlink="http://www.w3.org/1999/xlink" x="0px" y="0px"
	 width="512px" height="512px" viewBox="0 0 512 512" style="enable-background:new 0 0 512 512;" xml:space="preserve">
<style type="text/css">
	.st0{fill:#F4DE8B;}
	.st1{fill:url(#SVGID_1_);}
	.st2{fill:url(#SVGID_2_);}
	.st3{fill:url(#SVGID_3_);}
	.st4{fill:url(#SVGID_4_);}
	.st5{fill:url(#SVGID_5_);}
</style>
<g>
	<g>
		<path class="st0" d="M303.7,168.3c3,0,6.1-0.9,8.6-2.8c4.3-3.1,6.6-8.4,5.9-13.6l-5.3-42.7l29.4-31.4c3.6-3.9,4.9-9.4,3.2-14.5
			c-1.6-5.1-5.9-8.8-11.2-9.8l-42.3-8.1L271.3,7.6c-2.6-4.7-7.5-7.6-12.8-7.6c-5.3,0-10.2,2.9-12.8,7.6l-20.8,37.7l-42.3,8.1
			c-5.2,1-9.5,4.8-11.2,9.8c-1.6,5.1-0.4,10.6,3.2,14.5l29.4,31.4l-5.3,42.7c-0.7,5.3,1.6,10.5,5.9,13.6c4.3,3.1,10,3.7,14.8,1.4
			l39-18.3l39,18.3C299.5,167.9,301.6,168.3,303.7,168.3z"/>
		<path class="st0" d="M511.3,211.8c-1.6-5.1-5.9-8.8-11.2-9.8l-42.3-8.1l-20.8-37.7c-2.6-4.7-7.5-7.6-12.8-7.6
			c-5.3,0-10.2,2.9-12.8,7.6l-20.8,37.7l-42.3,8.1c-5.2,1-9.5,4.8-11.2,9.8s-0.4,10.6,3.2,14.5l29.4,31.4l-5.3,42.7
			c-0.7,5.3,1.6,10.5,5.9,13.6c4.3,3.1,10,3.7,14.8,1.4l39-18.3l39,18.3c2,0.9,4.1,1.4,6.2,1.4c3,0,6.1-0.9,8.6-2.8
			c4.3-3.1,6.6-8.4,5.9-13.6l-5.3-42.7l29.4-31.4C511.7,222.4,512.9,216.8,511.3,211.8z"/>
		<path class="st0" d="M232,392l-42.3-8.1l-20.8-37.7c-2.6-4.7-7.5-7.6-12.8-7.6c-5.3,0-10.2,2.9-12.8,7.6l-20.8,37.7L80.2,392
			c-5.2,1-9.5,4.8-11.2,9.8c-1.6,5.1-0.4,10.6,3.2,14.5l29.4,31.4l-5.3,42.7c-0.7,5.3,1.6,10.5,5.9,13.6c4.3,3.1,10,3.7,14.8,1.4
			l39-18.3l39,18.3c2,0.9,4.1,1.4,6.2,1.4c3,0,6.1-0.9,8.6-2.8c4.3-3.1,6.6-8.4,5.9-13.6l-5.3-42.7l29.4-31.4
			c3.6-3.9,4.9-9.4,3.2-14.5C241.5,396.8,237.2,393.1,232,392z"/>
		<path class="st0" d="M436.8,392l-42.3-8.1l-20.8-37.7c-2.6-4.7-7.5-7.6-12.8-7.6c-5.3,0-10.2,2.9-12.8,7.6l-20.8,37.7L285,392
			c-5.2,1-9.5,4.8-11.2,9.8c-1.6,5.1-0.4,10.6,3.2,14.5l29.4,31.4l-5.3,42.7c-0.7,5.3,1.6,10.5,5.9,13.6c4.3,3.1,10,3.7,14.8,1.4
			l39-18.3l39,18.3c2,0.9,4.1,1.4,6.2,1.4c3,0,6.1-0.9,8.6-2.8c4.3-3.1,6.6-8.4,5.9-13.6l-5.3-42.7l29.4-31.4
			c3.6-3.9,4.9-9.4,3.2-14.5C446.3,396.8,442,393.1,436.8,392z"/>
		<path class="st0" d="M131.7,315.5c2,0.9,4.1,1.4,6.2,1.4c3,0,6.1-0.9,8.6-2.8c4.3-3.1,6.6-8.4,5.9-13.6l-5.3-42.7l29.4-31.4
			c3.6-3.9,4.9-9.4,3.2-14.5c-1.6-5.1-5.9-8.8-11.2-9.8l-42.3-8.1l-20.8-37.7c-2.6-4.7-7.5-7.6-12.8-7.6c-5.3,0-10.2,2.9-12.8,7.6
			l-20.8,37.7l-42.3,8.1c-5.2,1-9.5,4.8-11.2,9.8c-1.6,5.1-0.4,10.6,3.2,14.5l29.4,31.4L33,300.4c-0.7,5.3,1.6,10.5,5.9,13.6
			c4.3,3.1,10,3.7,14.8,1.4l39-18.3L131.7,315.5z"/>
	</g>
	<g>
		<linearGradient id="SVGID_1_" gradientUnits="userSpaceOnUse" x1="-77.8349" y1="431.8577" x2="432.3445" y2="-76.321">
			<stop  offset="0" style="stop-color:#A1812E"/>
			<stop  offset="0.5" style="stop-color:#CFAD56"/>
			<stop  offset="1" style="stop-color:#F4DE8B"/>
		</linearGradient>
		<path class="st1" d="M298.7,173.3c3,0,6.1-0.9,8.6-2.8c4.3-3.1,6.6-8.4,5.9-13.6l-5.3-42.7l29.4-31.4c3.6-3.9,4.9-9.4,3.2-14.5
			c-1.6-5.1-5.9-8.8-11.2-9.8l-42.3-8.1l-20.8-37.7c-2.6-4.7-7.5-7.6-12.8-7.6c-5.3,0-10.2,2.9-12.8,7.6l-20.8,37.7l-42.3,8.1
			c-5.2,1-9.5,4.8-11.2,9.8c-1.6,5.1-0.4,10.6,3.2,14.5l29.4,31.4l-5.3,42.7c-0.7,5.3,1.6,10.5,5.9,13.6c4.3,3.1,10,3.7,14.8,1.4
			l39-18.3l39,18.3C294.5,172.9,296.6,173.3,298.7,173.3z"/>
		<linearGradient id="SVGID_2_" gradientUnits="userSpaceOnUse" x1="78.9801" y1="589.29" x2="589.1594" y2="81.1113">
			<stop  offset="0" style="stop-color:#A1812E"/>
			<stop  offset="0.5" style="stop-color:#CFAD56"/>
			<stop  offset="1" style="stop-color:#F4DE8B"/>
		</linearGradient>
		<path class="st2" d="M506.3,216.8c-1.6-5.1-5.9-8.8-11.2-9.8l-42.3-8.1l-20.8-37.7c-2.6-4.7-7.5-7.6-12.8-7.6
			c-5.3,0-10.2,2.9-12.8,7.6l-20.8,37.7l-42.3,8.1c-5.2,1-9.5,4.8-11.2,9.8c-1.6,5.1-0.4,10.6,3.2,14.5l29.4,31.4l-5.3,42.7
			c-0.7,5.3,1.6,10.5,5.9,13.6c4.3,3.1,10,3.7,14.8,1.4l39-18.3l39,18.3c2,0.9,4.1,1.4,6.2,1.4c3,0,6.1-0.9,8.6-2.8
			c4.3-3.1,6.6-8.4,5.9-13.6l-5.3-42.7l29.4-31.4C506.7,227.4,507.9,221.8,506.3,216.8z"/>
		<linearGradient id="SVGID_3_" gradientUnits="userSpaceOnUse" x1="40.5065" y1="550.665" x2="550.6859" y2="42.4863">
			<stop  offset="0" style="stop-color:#A1812E"/>
			<stop  offset="0.5" style="stop-color:#CFAD56"/>
			<stop  offset="1" style="stop-color:#F4DE8B"/>
		</linearGradient>
		<path class="st3" d="M227,397l-42.3-8.1l-20.8-37.7c-2.6-4.7-7.5-7.6-12.8-7.6c-5.3,0-10.2,2.9-12.8,7.6l-20.8,37.7L75.2,397
			c-5.2,1-9.5,4.8-11.2,9.8c-1.6,5.1-0.4,10.6,3.2,14.5l29.4,31.4l-5.3,42.7c-0.7,5.3,1.6,10.5,5.9,13.6c4.3,3.1,10,3.7,14.8,1.4
			l39-18.3l39,18.3c2,0.9,4.1,1.4,6.2,1.4c3,0,6.1-0.9,8.6-2.8c4.3-3.1,6.6-8.4,5.9-13.6l-5.3-42.7l29.4-31.4
			c3.6-3.9,4.9-9.4,3.2-14.5S232.2,398.1,227,397z"/>
		<linearGradient id="SVGID_4_" gradientUnits="userSpaceOnUse" x1="142.4785" y1="653.0385" x2="652.6579" y2="144.8598">
			<stop  offset="0" style="stop-color:#A1812E"/>
			<stop  offset="0.5" style="stop-color:#CFAD56"/>
			<stop  offset="1" style="stop-color:#F4DE8B"/>
		</linearGradient>
		<path class="st4" d="M431.8,397l-42.3-8.1l-20.8-37.7c-2.6-4.7-7.5-7.6-12.8-7.6c-5.3,0-10.2,2.9-12.8,7.6l-20.8,37.7L280,397
			c-5.2,1-9.5,4.8-11.2,9.8s-0.4,10.6,3.2,14.5l29.4,31.4l-5.3,42.7c-0.7,5.3,1.6,10.5,5.9,13.6c4.3,3.1,10,3.7,14.8,1.4l39-18.3
			l39,18.3c2,0.9,4.1,1.4,6.2,1.4c3,0,6.1-0.9,8.6-2.8c4.3-3.1,6.6-8.4,5.9-13.6l-5.3-42.7l29.4-31.4c3.6-3.9,4.9-9.4,3.2-14.5
			C441.3,401.8,437,398.1,431.8,397z"/>
		<linearGradient id="SVGID_5_" gradientUnits="userSpaceOnUse" x1="-86.117" y1="423.5429" x2="424.0624" y2="-84.6357">
			<stop  offset="0" style="stop-color:#A1812E"/>
			<stop  offset="0.5" style="stop-color:#CFAD56"/>
			<stop  offset="1" style="stop-color:#F4DE8B"/>
		</linearGradient>
		<path class="st5" d="M126.7,320.5c2,0.9,4.1,1.4,6.2,1.4c3,0,6.1-0.9,8.6-2.8c4.3-3.1,6.6-8.4,5.9-13.6l-5.3-42.7l29.4-31.4
			c3.6-3.9,4.9-9.4,3.2-14.5c-1.6-5.1-5.9-8.8-11.2-9.8l-42.3-8.1l-20.8-37.7c-2.6-4.7-7.5-7.6-12.8-7.6c-5.3,0-10.2,2.9-12.8,7.6
			l-20.8,37.7l-42.3,8.1c-5.2,1-9.5,4.8-11.2,9.8c-1.6,5.1-0.4,10.6,3.2,14.5l29.4,31.4L28,305.4c-0.7,5.3,1.6,10.5,5.9,13.6
			c4.3,3.1,10,3.7,14.8,1.4l39-18.3L126.7,320.5z"/>
	</g>
</g>
</svg>
