<?xml version="1.0" encoding="utf-8"?>
<!-- Generator: Adobe Illustrator 21.0.0, SVG Export Plug-In . SVG Version: 6.00 Build 0)  -->
<svg version="1.1" id="Слой_1" xmlns="http://www.w3.org/2000/svg" xmlns:xlink="http://www.w3.org/1999/xlink" x="0px" y="0px"
	 width="512px" height="512px" viewBox="0 0 512 512" style="enable-background:new 0 0 512 512;" xml:space="preserve">
<style type="text/css">
	.st0{fill:#F4DE8B;}
	.st1{fill:url(#SVGID_1_);}
</style>
<g>
	<path class="st0" d="M484.5,213.3c-5.9-4.9-14.9-12.3-15.9-16.1c-1.1-4.3,2.9-15.1,5.8-23c5.7-15.3,12.2-32.7,3.6-47.5
		c-8.7-15-27.1-18-43.4-20.7c-7.7-1.3-19.5-3.2-22.5-6.2S407.3,85,406,77.3c-2.7-16.3-5.8-34.7-20.7-43.4
		c-14.8-8.5-32.1-2.1-47.5,3.6c-7.9,2.9-18.7,7-23,5.8c-3.8-1-11.2-10-16.1-15.9C288.1,14.6,276.1,0,258.5,0s-29.6,14.6-40.2,27.5
		c-4.9,5.9-12.3,14.9-16.1,15.9c-4.3,1.1-15.1-2.9-23-5.8c-15.3-5.7-32.7-12.2-47.5-3.6c-15,8.7-18,27.1-20.7,43.4
		c-1.3,7.7-3.2,19.5-6.2,22.5S90,104.7,82.3,106c-16.3,2.7-34.7,5.8-43.4,20.7c-8.5,14.8-2.1,32.1,3.6,47.5c2.9,7.9,7,18.7,5.8,23
		c-1,3.8-10,11.2-15.9,16.1C19.6,223.9,5,235.9,5,253.5s14.6,29.6,27.5,40.2c5.9,4.9,14.9,12.3,15.9,16.1c1.1,4.3-2.9,15.1-5.8,23
		c-5.7,15.3-12.2,32.7-3.6,47.5c8.7,15,27.1,18,43.4,20.7c7.7,1.3,19.5,3.2,22.5,6.2c3,3,4.9,14.7,6.2,22.5
		c2.7,16.3,5.8,34.7,20.7,43.4c14.8,8.5,32.1,2.1,47.5-3.6c7.9-2.9,18.7-7,23-5.8c3.8,1,11.2,10,16.1,15.9
		c10.6,12.9,22.6,27.5,40.2,27.5s29.6-14.6,40.2-27.5c4.9-5.9,12.3-14.9,16.1-15.9c4.3-1.1,15.1,2.9,23,5.8
		c15.3,5.7,32.7,12.2,47.5,3.6c15-8.7,18-27.1,20.7-43.4c1.3-7.7,3.2-19.5,6.2-22.5c3-3,14.7-4.9,22.5-6.2
		c16.3-2.7,34.7-5.8,43.4-20.7c8.5-14.8,2.1-32.1-3.6-47.5c-2.9-7.9-7-18.7-5.8-23c1-3.8,10-11.2,15.9-16.1
		c12.9-10.6,27.5-22.6,27.5-40.2S497.4,223.9,484.5,213.3z M367.7,218.4l-87.8,117c-6.8,9.1-17.2,14.7-28.4,15.5
		c-0.9,0.1-1.8,0.1-2.8,0.1c-10.4,0-20.2-4.1-27.6-11.4l-58.5-58.5c-15.2-15.2-15.2-40,0-55.2c15.2-15.2,40-15.2,55.2,0l26.7,26.7
		l60.8-81c6.3-8.3,15.4-13.7,25.7-15.2c10.3-1.5,20.6,1.2,28.9,7.4c8.3,6.2,13.7,15.4,15.2,25.7
		C376.6,199.8,373.9,210.1,367.7,218.4z"/>
	<linearGradient id="SVGID_1_" gradientUnits="userSpaceOnUse" x1="0.2505" y1="511.2529" x2="508.2661" y2="4.2335">
		<stop  offset="0" style="stop-color:#A1812E"/>
		<stop  offset="0.5" style="stop-color:#CFAD56"/>
		<stop  offset="1" style="stop-color:#F4DE8B"/>
	</linearGradient>
	<path class="st1" d="M479.6,218.3c-5.9-4.9-14.9-12.3-15.9-16.1c-1.1-4.3,2.9-15.1,5.8-23c5.7-15.3,12.2-32.7,3.6-47.5
		c-8.7-15-27.1-18-43.4-20.7c-7.7-1.3-19.5-3.2-22.5-6.2c-3-3-4.9-14.7-6.2-22.5c-2.7-16.3-5.8-34.7-20.7-43.4
		c-14.8-8.5-32.1-2.1-47.5,3.6c-7.9,2.9-18.7,7-23,5.8c-3.8-1-11.2-10-16.1-15.9C283.1,19.6,271.1,5,253.5,5s-29.6,14.6-40.2,27.5
		c-4.9,5.9-12.3,14.9-16.1,15.9c-4.3,1.1-15.1-2.9-23-5.8c-15.3-5.7-32.7-12.2-47.5-3.6c-15,8.7-18,27.1-20.7,43.4
		c-1.3,7.7-3.2,19.5-6.2,22.5S85,109.7,77.3,111c-16.3,2.7-34.7,5.8-43.4,20.7c-8.5,14.8-2.1,32.1,3.6,47.5c2.9,7.9,7,18.7,5.8,23
		c-1,3.8-10,11.2-15.9,16.1C14.6,228.9,0,240.9,0,258.5s14.6,29.6,27.5,40.2c5.9,4.9,14.9,12.3,15.9,16.1c1.1,4.3-2.9,15.1-5.8,23
		c-5.7,15.3-12.2,32.7-3.6,47.5c8.7,15,27.1,18,43.4,20.7c7.7,1.3,19.5,3.2,22.5,6.2s4.9,14.7,6.2,22.5c2.7,16.3,5.8,34.7,20.7,43.4
		c14.8,8.5,32.1,2.1,47.5-3.6c7.9-2.9,18.7-7,23-5.8c3.8,1,11.2,10,16.1,15.9c10.6,12.9,22.6,27.5,40.2,27.5s29.6-14.6,40.2-27.5
		c4.9-5.9,12.3-14.9,16.1-15.9c4.3-1.1,15.1,2.9,23,5.8c15.3,5.7,32.7,12.2,47.5,3.6c15-8.7,18-27.1,20.7-43.4
		c1.3-7.7,3.2-19.5,6.2-22.5c3-3,14.7-4.9,22.5-6.2c16.3-2.7,34.7-5.8,43.4-20.7c8.5-14.8,2.1-32.1-3.6-47.5c-2.9-7.9-7-18.7-5.8-23
		c1-3.8,10-11.2,15.9-16.1c12.9-10.6,27.5-22.6,27.5-40.2S492.4,228.9,479.6,218.3z M362.7,223.4l-87.8,117
		c-6.8,9.1-17.2,14.7-28.4,15.5c-0.9,0.1-1.8,0.1-2.8,0.1c-10.4,0-20.2-4.1-27.6-11.4l-58.5-58.5c-15.2-15.2-15.2-40,0-55.2
		c15.2-15.2,40-15.2,55.2,0l26.7,26.7l60.8-81c6.3-8.3,15.4-13.7,25.7-15.2c10.3-1.5,20.6,1.2,28.9,7.4c8.3,6.2,13.7,15.4,15.2,25.7
		C371.6,204.8,369,215.1,362.7,223.4z"/>
</g>
</svg>
