<?xml version="1.0" encoding="utf-8"?>
<!-- Generator: Adobe Illustrator 21.0.0, SVG Export Plug-In . SVG Version: 6.00 Build 0)  -->
<svg version="1.1" id="Layer_1" xmlns="http://www.w3.org/2000/svg" xmlns:xlink="http://www.w3.org/1999/xlink" x="0px" y="0px"
	 width="512px" height="512px" viewBox="0 0 512 512" style="enable-background:new 0 0 512 512;" xml:space="preserve">
<style type="text/css">
	.st0{fill:#F4DE8B;}
	.st1{fill:url(#SVGID_1_);}
	.st2{fill:url(#SVGID_2_);}
</style>
<g>
	<g>
		<g>
			<g>
				<path class="st0" d="M258.8,100.9c-91.9,0-205,142.3-205,258c0,43.9,15.6,79.1,46.5,104.6c35,28.9,88.3,43.5,158.5,43.5
					c69.9,0,123.1-14.8,158-43.9c30.8-25.7,46.4-61.1,46.4-105.2C463.2,242.6,350.5,100.9,258.8,100.9z M266.7,299.7
					c23.5,12.4,52.7,27.8,52.7,58.5c0,27.6-18.6,50.8-43.9,58v7.8c0,9.1-7.4,16.5-16.5,16.5c-9.1,0-16.5-7.4-16.5-16.5v-7.8
					c-25.3-7.2-43.9-30.5-43.9-58c0-9.1,7.4-16.5,16.5-16.5c9.1,0,16.5,7.4,16.5,16.5c0,15.1,12.3,27.4,27.4,27.4
					c15.1,0,27.4-12.3,27.4-27.4c0-10.8-17.9-20.2-35.1-29.4c-23.5-12.4-52.7-27.8-52.7-58.5c0-27.6,18.6-50.8,43.9-58v-7.8
					c0-9.1,7.4-16.5,16.5-16.5s16.5,7.4,16.5,16.5v7.8c25.3,7.2,43.9,30.5,43.9,58c0,9.1-7.4,16.5-16.5,16.5s-16.5-7.4-16.5-16.5
					c0-15.1-12.3-27.4-27.4-27.4c-15.1,0-27.4,12.3-27.4,27.4C231.6,281.1,249.4,290.5,266.7,299.7z"/>
			</g>
		</g>
		<g>
			<g>
				<path class="st0" d="M348.6,20.3c-7.6-3.9-17-1.3-21.5,5.9c-6.9,11-16.5,13.8-23.3,14.2c-11.9,0.8-23.9-5.2-32.1-15.7
					C259.2,9,239.5,0,217.6,0S176,9,163.6,24.8c-3.7,4.7-4.6,11-2.3,16.5c1.8,4.5,10.9,25.3,25.9,46.1c23.7-12.3,48-19.4,71.7-19.4
					c23.6,0,48,7.1,71.6,19.4c15-20.8,24.1-41.6,25.9-46.1C359.6,33.3,356.3,24.3,348.6,20.3z"/>
			</g>
		</g>
	</g>
	<g>
		<g>
			<g>
				<linearGradient id="SVGID_1_" gradientUnits="userSpaceOnUse" x1="97.1904" y1="544.5594" x2="484.3728" y2="52.412">
					<stop  offset="0" style="stop-color:#A1812E"/>
					<stop  offset="0.5" style="stop-color:#CFAD56"/>
					<stop  offset="1" style="stop-color:#F4DE8B"/>
				</linearGradient>
				<path class="st1" d="M253.8,105.9c-91.9,0-205,142.3-205,258c0,43.9,15.6,79.1,46.5,104.6c35,28.9,88.3,43.5,158.5,43.5
					c69.9,0,123.1-14.8,158-43.9c30.8-25.7,46.4-61.1,46.4-105.2C458.2,247.6,345.5,105.9,253.8,105.9z M261.7,304.7
					c23.5,12.4,52.7,27.8,52.7,58.5c0,27.6-18.6,50.8-43.9,58v7.8c0,9.1-7.4,16.5-16.5,16.5c-9.1,0-16.5-7.4-16.5-16.5v-7.8
					c-25.3-7.2-43.9-30.5-43.9-58c0-9.1,7.4-16.5,16.5-16.5c9.1,0,16.5,7.4,16.5,16.5c0,15.1,12.3,27.4,27.4,27.4
					c15.1,0,27.4-12.3,27.4-27.4c0-10.8-17.9-20.2-35.1-29.4c-23.5-12.4-52.7-27.8-52.7-58.5c0-27.6,18.6-50.8,43.9-58v-7.8
					c0-9.1,7.4-16.5,16.5-16.5c9.1,0,16.5,7.4,16.5,16.5v7.8c25.3,7.2,43.9,30.5,43.9,58c0,9.1-7.4,16.5-16.5,16.5
					s-16.5-7.4-16.5-16.5c0-15.1-12.3-27.4-27.4-27.4c-15.1,0-27.4,12.3-27.4,27.4C226.6,286.1,244.4,295.5,261.7,304.7z"/>
			</g>
		</g>
		<g>
			<g>
				<linearGradient id="SVGID_2_" gradientUnits="userSpaceOnUse" x1="-48.3221" y1="430.0817" x2="338.8602" y2="-62.0657">
					<stop  offset="0" style="stop-color:#A1812E"/>
					<stop  offset="0.5" style="stop-color:#CFAD56"/>
					<stop  offset="1" style="stop-color:#F4DE8B"/>
				</linearGradient>
				<path class="st2" d="M343.6,25.3c-7.6-3.9-17-1.3-21.5,5.9c-6.9,11-16.5,13.8-23.3,14.2c-11.9,0.8-23.9-5.2-32.1-15.7
					C254.2,14,234.5,5,212.6,5s-41.6,9-54.1,24.8c-3.7,4.7-4.6,11-2.3,16.5c1.8,4.5,10.9,25.3,25.9,46.1
					c23.7-12.3,48-19.4,71.7-19.4c23.6,0,48,7.1,71.6,19.4c15-20.8,24.1-41.6,25.9-46.1C354.6,38.3,351.3,29.3,343.6,25.3z"/>
			</g>
		</g>
	</g>
</g>
</svg>
