<?xml version="1.0" encoding="utf-8"?>
<!-- Generator: Adobe Illustrator 21.0.0, SVG Export Plug-In . SVG Version: 6.00 Build 0)  -->
<svg version="1.1" id="Capa_1" xmlns="http://www.w3.org/2000/svg" xmlns:xlink="http://www.w3.org/1999/xlink" x="0px" y="0px"
	 width="512px" height="512px" viewBox="0 0 512 512" style="enable-background:new 0 0 512 512;" xml:space="preserve">
<style type="text/css">
	.st0{fill:#F4DE8B;}
	.st1{fill:url(#SVGID_1_);}
	.st2{fill:url(#SVGID_2_);}
	.st3{fill:url(#SVGID_3_);}
	.st4{fill:url(#SVGID_4_);}
	.st5{fill:url(#SVGID_5_);}
</style>
<g>
	<g>
		<g>
			<path class="st0" d="M39.4,377.5v82.2c0,5,4.1,9.2,9.2,9.2h63.5c5,0,9.2-4.1,9.2-9.2V315.1l-46.1,46.1
				C65.3,370.9,52.8,376.5,39.4,377.5z"/>
			<path class="st0" d="M152.9,314v145.6c0,5,4.1,9.2,9.2,9.2h63.5c5,0,9.2-4.1,9.2-9.2v-85.7c-14.5-0.3-28-6-38.2-16.2L152.9,314z"
				/>
			<path class="st0" d="M266.4,364.8v94.8c0,5,4.1,9.2,9.2,9.2h63.5c5,0,9.2-4.1,9.2-9.2V284.7l-72.8,72.8
				C272.7,360.4,269.7,362.8,266.4,364.8z"/>
			<path class="st0" d="M455.7,177.3L380,253v206.7c0,5,4.1,9.2,9.2,9.2h63.5c5,0,9.2-4.1,9.2-9.2V183c-2.1-1.8-3.6-3.3-4.8-4.4
				L455.7,177.3z"/>
			<path class="st0" d="M507.7,43.1c-3-3.2-7.6-4.9-13.4-4.9c-0.5,0-1.1,0-1.7,0c-29.6,1.4-59.1,2.8-88.6,4.2
				c-4,0.2-9.4,0.4-13.6,4.7c-1.4,1.4-2.4,2.9-3.2,4.8c-4.4,9.5,1.8,15.6,4.7,18.5l7.4,7.5c5.1,5.2,10.3,10.4,15.5,15.5L235.9,272.2
				l-80.3-80.3c-4.8-4.8-11.2-7.5-18.1-7.5c-6.9,0-13.2,2.7-18,7.5l-107,106.9c-10,10-10,26.1,0,36.1l4.8,4.8
				c4.8,4.8,11.2,7.5,18.1,7.5s13.2-2.7,18-7.5l84.1-84.1l80.3,80.3c4.8,4.8,11.2,7.5,18.1,7.5c6.9,0,13.2-2.7,18.1-7.5l201.7-201.7
				l22.8,22.7c2.7,2.7,6.5,6.5,12.2,6.5c2.4,0,4.8-0.6,7.3-2c1.7-0.9,3.1-2,4.4-3.2c4.5-4.5,5.3-10.2,5.5-14.7
				c0.8-19.2,1.8-38.3,2.7-57.6l1.4-28.9C512.3,51.1,510.9,46.4,507.7,43.1z"/>
		</g>
	</g>
	<g>
		<g>
			<linearGradient id="SVGID_1_" gradientUnits="userSpaceOnUse" x1="-6.8455" y1="507.1193" x2="504.1545" y2="-0.8807">
				<stop  offset="0" style="stop-color:#A1812E"/>
				<stop  offset="0.5" style="stop-color:#CFAD56"/>
				<stop  offset="1" style="stop-color:#F4DE8B"/>
			</linearGradient>
			<path class="st1" d="M34.4,382.5v82.2c0,5,4.1,9.2,9.2,9.2h63.5c5,0,9.2-4.1,9.2-9.2V320.1l-46.1,46.1
				C60.3,375.9,47.8,381.5,34.4,382.5z"/>
			<linearGradient id="SVGID_2_" gradientUnits="userSpaceOnUse" x1="33.7302" y1="547.9345" x2="544.7302" y2="39.9345">
				<stop  offset="0" style="stop-color:#A1812E"/>
				<stop  offset="0.5" style="stop-color:#CFAD56"/>
				<stop  offset="1" style="stop-color:#F4DE8B"/>
			</linearGradient>
			<path class="st2" d="M147.9,319v145.6c0,5,4.1,9.2,9.2,9.2h63.5c5,0,9.2-4.1,9.2-9.2v-85.7c-14.5-0.3-28-6-38.2-16.2L147.9,319z"
				/>
			<linearGradient id="SVGID_3_" gradientUnits="userSpaceOnUse" x1="102.8717" y1="617.4844" x2="613.8717" y2="109.4844">
				<stop  offset="0" style="stop-color:#A1812E"/>
				<stop  offset="0.5" style="stop-color:#CFAD56"/>
				<stop  offset="1" style="stop-color:#F4DE8B"/>
			</linearGradient>
			<path class="st3" d="M261.4,369.8v94.8c0,5,4.1,9.2,9.2,9.2h63.5c5,0,9.2-4.1,9.2-9.2V289.7l-72.8,72.8
				C267.7,365.4,264.7,367.8,261.4,369.8z"/>
			<linearGradient id="SVGID_4_" gradientUnits="userSpaceOnUse" x1="131.2276" y1="646.0077" x2="642.2276" y2="138.0077">
				<stop  offset="0" style="stop-color:#A1812E"/>
				<stop  offset="0.5" style="stop-color:#CFAD56"/>
				<stop  offset="1" style="stop-color:#F4DE8B"/>
			</linearGradient>
			<path class="st4" d="M450.7,182.3L375,258v206.7c0,5,4.1,9.2,9.2,9.2h63.5c5,0,9.2-4.1,9.2-9.2V188c-2.1-1.8-3.6-3.3-4.8-4.4
				L450.7,182.3z"/>
			<linearGradient id="SVGID_5_" gradientUnits="userSpaceOnUse" x1="-14.8794" y1="499.0378" x2="496.1205" y2="-8.9622">
				<stop  offset="0" style="stop-color:#A1812E"/>
				<stop  offset="0.5" style="stop-color:#CFAD56"/>
				<stop  offset="1" style="stop-color:#F4DE8B"/>
			</linearGradient>
			<path class="st5" d="M502.7,48.1c-3-3.2-7.6-4.9-13.4-4.9c-0.5,0-1.1,0-1.7,0c-29.6,1.4-59.1,2.8-88.6,4.2
				c-4,0.2-9.4,0.4-13.6,4.7c-1.4,1.4-2.4,2.9-3.2,4.8c-4.4,9.5,1.8,15.6,4.7,18.5l7.4,7.5c5.1,5.2,10.3,10.4,15.5,15.5L230.9,277.2
				l-80.3-80.3c-4.8-4.8-11.2-7.5-18.1-7.5c-6.9,0-13.2,2.7-18,7.5L7.5,303.8c-10,10-10,26.1,0,36.1l4.8,4.8
				c4.8,4.8,11.2,7.5,18.1,7.5s13.2-2.7,18-7.5l84.1-84.1l80.3,80.3c4.8,4.8,11.2,7.5,18.1,7.5c6.9,0,13.2-2.7,18.1-7.5l201.7-201.7
				l22.8,22.7c2.7,2.7,6.5,6.5,12.2,6.5c2.4,0,4.8-0.6,7.3-2c1.7-0.9,3.1-2,4.4-3.2c4.5-4.5,5.3-10.2,5.5-14.7
				c0.8-19.2,1.8-38.3,2.7-57.6l1.4-28.9C507.3,56.1,505.9,51.4,502.7,48.1z"/>
		</g>
	</g>
</g>
</svg>
