<?xml version="1.0" encoding="utf-8"?>
<!-- Generator: Adobe Illustrator 21.0.0, SVG Export Plug-In . SVG Version: 6.00 Build 0)  -->
<svg version="1.1" id="Capa_1" xmlns="http://www.w3.org/2000/svg" xmlns:xlink="http://www.w3.org/1999/xlink" x="0px" y="0px"
	 width="512px" height="512px" viewBox="0 0 512 512" style="enable-background:new 0 0 512 512;" xml:space="preserve">
<style type="text/css">
	.st0{fill:#F4DE8B;}
	.st1{fill:url(#SVGID_1_);}
	.st2{fill:url(#SVGID_2_);}
	.st3{fill:url(#SVGID_3_);}
</style>
<g>
	<g>
		<path class="st0" d="M38.3,185.8c2.7,9.1,6.4,17.9,11,26.2L36,228.8c-4.4,5.5-3.9,13.3,1,18.3l23,23c4.9,4.9,12.8,5.4,18.3,1
			L95,257.8c8.6,4.9,17.7,8.8,27.2,11.5l2.5,21.5c0.8,7,6.7,12.2,13.7,12.2h32.5c7,0,12.8-5.2,13.7-12.2l2.4-20.7
			c10.2-2.7,20-6.6,29.2-11.8l16.2,12.8c5.5,4.4,13.3,3.9,18.3-1l23-23c4.9-4.9,5.4-12.8,1-18.3l-12.6-15.9c5.2-9,9.3-18.7,12-28.7
			l19.4-2.2c7-0.8,12.2-6.7,12.2-13.7v-32.5c0-7-5.2-12.8-12.2-13.7l-19.1-2.2c-2.6-10-6.5-19.5-11.5-28.4l11.7-14.8
			c4.4-5.5,3.9-13.3-1-18.3l-22.9-22.9c-4.9-4.9-12.8-5.4-18.3-1l-14.4,11.4c-9.4-5.5-19.4-9.7-29.9-12.5l-2.2-18.7
			c-0.8-7-6.7-12.2-13.7-12.2h-32.5c-7,0-12.8,5.2-13.7,12.2l-2.2,18.7c-10.8,2.9-21,7.2-30.6,12.9l-15-11.9
			c-5.5-4.4-13.3-3.9-18.3,1l-23,23c-4.9,4.9-5.4,12.8-1,18.3l12.5,15.8c-5,9-8.8,18.7-11.3,28.7l-20,2.3c-7,0.8-12.2,6.7-12.2,13.7
			v32.5c0,7,5.2,12.8,12.2,13.7L38.3,185.8z M155.9,97.9c29.6,0,53.7,24.1,53.7,53.7s-24.1,53.7-53.7,53.7
			c-29.6,0-53.7-24.1-53.7-53.7S126.3,97.9,155.9,97.9z"/>
		<path class="st0" d="M476.9,193.8l-17.1-14.5c-5.3-4.5-13.1-4.2-18.1,0.5l-9.5,8.9c-8-3.9-16.5-6.6-25.2-8.2l-2.7-13.1
			c-1.4-6.7-7.6-11.4-14.5-10.9l-22.4,1.9c-6.9,0.6-12.2,6.2-12.5,13.1l-0.4,13.3c-8.6,3.1-16.7,7.3-24.1,12.7l-11.3-7.5
			c-5.8-3.8-13.4-2.7-17.9,2.6l-14.5,17.2c-4.5,5.3-4.2,13.1,0.5,18.1l9.9,10.6c-3.4,7.7-5.9,15.8-7.3,24.1l-14.1,2.9
			c-6.7,1.4-11.4,7.6-10.9,14.5l1.9,22.4c0.6,6.9,6.2,12.2,13.1,12.5l15.3,0.5c2.8,7.3,6.4,14.2,10.8,20.7l-8.5,12.9
			c-3.8,5.8-2.7,13.4,2.6,17.9l17.1,14.5c5.3,4.5,13.1,4.2,18.1-0.5l11.2-10.5c7.3,3.4,15.1,6,23,7.5l3.1,15.3
			c1.4,6.7,7.6,11.4,14.5,10.9l22.4-1.9c6.9-0.6,12.2-6.2,12.5-13.1l0.5-15c8.2-2.9,15.9-6.8,23-11.6l12.3,8.2
			c5.8,3.8,13.4,2.7,17.9-2.6l14.5-17.1c4.5-5.3,4.2-13.1-0.5-18.1l-10-10.6c3.6-7.7,6.3-15.9,7.8-24.3l13.6-2.8
			c6.7-1.4,11.4-7.6,10.9-14.5l-1.9-22.4c-0.6-6.9-6.2-12.2-13.1-12.5l-13.7-0.4c-2.8-7.9-6.6-15.4-11.4-22.4l7.5-11.2
			C483.3,205.9,482.2,198.2,476.9,193.8z M392.7,323c-24.1,2.1-45.5-15.9-47.5-40.1c-2.1-24.1,15.9-45.5,40.1-47.5
			c24.1-2.1,45.5,15.9,47.5,40.1C434.8,299.6,416.8,321,392.7,323z"/>
		<path class="st0" d="M116.5,383.1c-6.9,0.7-12.1,6.5-12.2,13.4l-0.2,13.8c-0.1,6.9,5,12.8,11.9,13.7l10.1,1.3
			c1.7,6.1,4.1,12,7.2,17.6l-6.5,8c-4.4,5.4-4,13.1,0.8,18.1l9.6,9.8c4.8,4.9,12.6,5.5,18.1,1.3l8.1-6.3c5.7,3.4,11.7,6,18.1,7.9
			l1.1,10.4c0.7,6.9,6.5,12.1,13.4,12.2l13.8,0.2c6.9,0.1,12.8-5,13.7-11.9l1.3-9.9c6.9-1.7,13.4-4.2,19.6-7.6l7.6,6.1
			c5.4,4.4,13.1,4,18.1-0.8l9.8-9.6c4.9-4.8,5.5-12.6,1.3-18.1l-5.8-7.6c3.6-6,6.4-12.3,8.3-19l9-0.9c6.9-0.7,12.1-6.5,12.2-13.4
			l0.2-13.8c0.1-6.9-5-12.8-11.9-13.7l-8.8-1.1c-1.7-6.6-4.2-13.1-7.5-19l5.5-6.7c4.4-5.4,4-13.1-0.8-18.1l-9.6-9.8
			c-4.8-4.9-12.6-5.5-18.1-1.3l-6.6,5.1c-6.2-3.8-12.8-6.6-19.8-8.6l-0.9-8.5c-0.7-6.9-6.5-12.1-13.4-12.2l-13.8-0.2
			c-6.9-0.1-12.8,5-13.7,11.9l-1.1,8.5c-7.2,1.8-14.1,4.7-20.5,8.4l-6.8-5.5c-5.4-4.4-13.1-4-18.1,0.8l-9.9,9.7
			c-4.9,4.8-5.5,12.6-1.3,18.1l5.8,7.5c-3.4,6-6,12.3-7.8,19L116.5,383.1z M205.3,367.6c19.7,0.2,35.6,16.5,35.4,36.2
			c-0.2,19.7-16.5,35.6-36.2,35.4c-19.7-0.2-35.6-16.5-35.4-36.2C169.3,383.2,185.6,367.4,205.3,367.6z"/>
	</g>
	<g>
		<linearGradient id="SVGID_1_" gradientUnits="userSpaceOnUse" x1="-99.4141" y1="405.9774" x2="405.5859" y2="-96.0226">
			<stop  offset="0" style="stop-color:#A1812E"/>
			<stop  offset="0.5" style="stop-color:#CFAD56"/>
			<stop  offset="1" style="stop-color:#F4DE8B"/>
		</linearGradient>
		<path class="st1" d="M33.3,190.8c2.7,9.1,6.4,17.9,11,26.2L31,233.8c-4.4,5.5-3.9,13.3,1,18.3l23,23c4.9,4.9,12.8,5.4,18.3,1
			L90,262.8c8.6,4.9,17.7,8.8,27.2,11.5l2.5,21.5c0.8,7,6.7,12.2,13.7,12.2h32.5c7,0,12.8-5.2,13.7-12.2l2.4-20.7
			c10.2-2.7,20-6.6,29.2-11.8l16.2,12.8c5.5,4.4,13.3,3.9,18.3-1l23-23c4.9-4.9,5.4-12.8,1-18.3l-12.6-15.9c5.2-9,9.3-18.7,12-28.7
			l19.4-2.2c7-0.8,12.2-6.7,12.2-13.7v-32.5c0-7-5.2-12.8-12.2-13.7l-19.1-2.2c-2.6-10-6.5-19.5-11.5-28.4l11.7-14.8
			c4.4-5.5,3.9-13.3-1-18.3l-22.9-22.9c-4.9-4.9-12.8-5.4-18.3-1l-14.4,11.4c-9.4-5.5-19.4-9.7-29.9-12.5l-2.2-18.7
			c-0.8-7-6.7-12.2-13.7-12.2h-32.5c-7,0-12.8,5.2-13.7,12.2l-2.2,18.7c-10.8,2.9-21,7.2-30.6,12.9l-15-11.9
			c-5.5-4.4-13.3-3.9-18.3,1l-23,23c-4.9,4.9-5.4,12.8-1,18.3l12.5,15.8c-5,9-8.8,18.7-11.3,28.7l-20,2.3c-7,0.8-12.2,6.7-12.2,13.7
			v32.5c0,7,5.2,12.8,12.2,13.7L33.3,190.8z M150.9,102.9c29.6,0,53.7,24.1,53.7,53.7s-24.1,53.7-53.7,53.7
			c-29.6,0-53.7-24.1-53.7-53.7S121.3,102.9,150.9,102.9z"/>
		<linearGradient id="SVGID_2_" gradientUnits="userSpaceOnUse" x1="80.2025" y1="586.6674" x2="585.2025" y2="84.6674">
			<stop  offset="0" style="stop-color:#A1812E"/>
			<stop  offset="0.5" style="stop-color:#CFAD56"/>
			<stop  offset="1" style="stop-color:#F4DE8B"/>
		</linearGradient>
		<path class="st2" d="M471.9,198.8l-17.1-14.5c-5.3-4.5-13.1-4.2-18.1,0.5l-9.5,8.9c-8-3.9-16.5-6.6-25.2-8.2l-2.7-13.1
			c-1.4-6.7-7.6-11.4-14.5-10.9l-22.4,1.9c-6.9,0.6-12.2,6.2-12.5,13.1l-0.4,13.3c-8.6,3.1-16.7,7.3-24.1,12.7l-11.3-7.5
			c-5.8-3.8-13.4-2.7-17.9,2.6l-14.5,17.2c-4.5,5.3-4.2,13.1,0.5,18.1l9.9,10.6c-3.4,7.7-5.9,15.8-7.3,24.1l-14.1,2.9
			c-6.7,1.4-11.4,7.6-10.9,14.5l1.9,22.4c0.6,6.9,6.2,12.2,13.1,12.5l15.3,0.5c2.8,7.3,6.4,14.2,10.8,20.7l-8.5,12.9
			c-3.8,5.8-2.7,13.4,2.6,17.9l17.1,14.5c5.3,4.5,13.1,4.2,18.1-0.5l11.2-10.5c7.3,3.4,15.1,6,23,7.5l3.1,15.3
			c1.4,6.7,7.6,11.4,14.5,10.9l22.4-1.9c6.9-0.6,12.2-6.2,12.5-13.1l0.5-15c8.2-2.9,15.9-6.8,23-11.6l12.3,8.2
			c5.8,3.8,13.4,2.7,17.9-2.6l14.5-17.1c4.5-5.3,4.2-13.1-0.5-18.1l-10-10.6c3.6-7.7,6.3-15.9,7.8-24.3l13.6-2.8
			c6.7-1.4,11.4-7.6,10.9-14.5l-1.9-22.4c-0.6-6.9-6.2-12.2-13.1-12.5l-13.7-0.4c-2.8-7.9-6.6-15.4-11.4-22.4l7.5-11.2
			C478.3,210.9,477.2,203.2,471.9,198.8z M387.7,328c-24.1,2.1-45.5-15.9-47.5-40.1c-2.1-24.1,15.9-45.5,40.1-47.5
			c24.1-2.1,45.5,15.9,47.5,40.1C429.8,304.6,411.8,326,387.7,328z"/>
		<linearGradient id="SVGID_3_" gradientUnits="userSpaceOnUse" x1="50.7136" y1="557.0023" x2="555.7136" y2="55.0022">
			<stop  offset="0" style="stop-color:#A1812E"/>
			<stop  offset="0.5" style="stop-color:#CFAD56"/>
			<stop  offset="1" style="stop-color:#F4DE8B"/>
		</linearGradient>
		<path class="st3" d="M111.5,388.1c-6.9,0.7-12.1,6.5-12.2,13.4l-0.2,13.8c-0.1,6.9,5,12.8,11.9,13.7l10.1,1.3
			c1.7,6.1,4.1,12,7.2,17.6l-6.5,8c-4.4,5.4-4,13.1,0.8,18.1l9.6,9.8c4.8,4.9,12.6,5.5,18.1,1.3l8.1-6.3c5.7,3.4,11.7,6,18.1,7.9
			l1.1,10.4c0.7,6.9,6.5,12.1,13.4,12.2l13.8,0.2c6.9,0.1,12.8-5,13.7-11.9l1.3-9.9c6.9-1.7,13.4-4.2,19.6-7.6l7.6,6.1
			c5.4,4.4,13.1,4,18.1-0.8l9.8-9.6c4.9-4.8,5.5-12.6,1.3-18.1l-5.8-7.6c3.6-6,6.4-12.3,8.3-19l9-0.9c6.9-0.7,12.1-6.5,12.2-13.4
			l0.2-13.8c0.1-6.9-5-12.8-11.9-13.7l-8.8-1.1c-1.7-6.6-4.2-13.1-7.5-19l5.5-6.7c4.4-5.4,4-13.1-0.8-18.1l-9.6-9.8
			c-4.8-4.9-12.6-5.5-18.1-1.3l-6.6,5.1c-6.2-3.8-12.8-6.6-19.8-8.6l-0.9-8.5c-0.7-6.9-6.5-12.1-13.4-12.2l-13.8-0.2
			c-6.9-0.1-12.8,5-13.7,11.9l-1.1,8.5c-7.2,1.8-14.1,4.7-20.5,8.4l-6.8-5.5c-5.4-4.4-13.1-4-18.1,0.8l-9.9,9.7
			c-4.9,4.8-5.5,12.6-1.3,18.1l5.8,7.5c-3.4,6-6,12.3-7.8,19L111.5,388.1z M200.3,372.6c19.7,0.2,35.6,16.5,35.4,36.2
			c-0.2,19.7-16.5,35.6-36.2,35.4c-19.7-0.2-35.6-16.5-35.4-36.2C164.3,388.2,180.6,372.4,200.3,372.6z"/>
	</g>
</g>
</svg>
