<?xml version="1.0" encoding="utf-8"?>
<!-- Generator: Adobe Illustrator 21.0.0, SVG Export Plug-In . SVG Version: 6.00 Build 0)  -->
<svg version="1.1" id="Capa_1" xmlns="http://www.w3.org/2000/svg" xmlns:xlink="http://www.w3.org/1999/xlink" x="0px" y="0px"
	 width="512px" height="512px" viewBox="0 0 512 512" style="enable-background:new 0 0 512 512;" xml:space="preserve">
<style type="text/css">
	.st0{fill:#F4DE8B;}
	.st1{fill:url(#SVGID_1_);}
	.st2{fill:url(#SVGID_2_);}
	.st3{fill:url(#SVGID_3_);}
	.st4{fill:url(#SVGID_4_);}
</style>
<g>
	<g>
		<path class="st0" d="M445.6,228.8l-24.8-33.9c-1.6-2.2-1.7-5.2-0.1-7.4l24.2-34.2c2.2-3.1,1.1-7.5-2.2-9.2l-37-19.8
			c-2.4-1.2-3.7-3.9-3.2-6.6l6.9-41.3c0.6-3.7-2.2-7.3-6-7.4l-41.9-1.8c-2.7-0.1-5.1-2-5.8-4.6l-11.6-40.4c-1-3.6-5.1-5.6-8.6-4
			l-38.5,16.6c-2.5,1-5.4,0.4-7.3-1.6l-28-31.2c-2.6-2.8-6.9-2.8-9.5,0.1l-27.6,31.6c-1.8,2.1-4.7,2.7-7.1,1.7l-38.7-16
			c-3.5-1.5-7.5,0.5-8.5,4.1L159.3,64c-0.7,2.6-3,4.5-5.7,4.7l-41.9,2.4c-3.8,0.2-6.5,3.7-5.9,7.5l7.6,41.2c0.5,2.7-0.8,5.4-3.1,6.6
			l-36.7,20.3c-3.3,1.9-4.2,6.2-2.1,9.2l24.8,33.9c1.6,2.2,1.7,5.2,0.1,7.4l-24.2,34.2c-2.2,3.1-1.1,7.5,2.2,9.2l37,19.8
			c2.4,1.2,3.7,3.9,3.2,6.6l-6.9,41.3c-0.6,3.7,2.2,7.3,6,7.4l41.9,1.8c2.7,0.1,5.1,2,5.8,4.6l11.7,40.3c1,3.6,5.1,5.6,8.6,4
			l38.5-16.6c2.5-1,5.4-0.4,7.3,1.6l28,31.2c2.6,2.8,6.9,2.8,9.5-0.1l27.6-31.6c1.8-2.1,4.7-2.7,7.1-1.7l38.7,16
			c3.5,1.5,7.5-0.5,8.5-4.1l11.1-40.4c0.7-2.6,3-4.5,5.7-4.7l41.9-2.4c3.8-0.2,6.5-3.7,5.9-7.5l-7.6-41.2c-0.5-2.7,0.8-5.4,3.1-6.6
			l36.7-20.3C446.9,236.2,447.8,231.9,445.6,228.8z M258.7,306.2c-62.7,0-113.8-51.1-113.8-113.8S196,78.6,258.7,78.6
			s113.8,51.1,113.8,113.8C372.4,255.2,321.3,306.2,258.7,306.2z"/>
		<path class="st0" d="M361.1,379.7c-6,6.1-14.4,9.7-23.4,9.7c-3.2,0-6.4-0.5-9.4-1.3l-26.7-8.1l-20.6,18.9
			c-0.7,0.6-1.3,1.2-2.1,1.8L312,503.4c1.1,3.6,5.8,4.5,8.2,1.5l24.1-31c1.1-1.6,3.2-2.2,5-1.7l37.6,11c3.6,1,6.9-2.4,5.8-5.9
			L361.1,379.7z"/>
		<path class="st0" d="M215.9,380l-26.7,8.1c-3.1,0.9-6.2,1.3-9.4,1.3c-9,0-17.3-3.6-23.4-9.7l-31.6,97.7c-1.1,3.6,2.2,6.9,5.8,5.9
			l37.6-11c1.9-0.5,3.8,0.1,5,1.7l24.1,31c2.3,3,7,2.2,8.2-1.5l33.2-102.8c-0.7-0.5-1.5-1.1-2.1-1.8L215.9,380z"/>
		<path class="st0" d="M326.1,164.1l-42.9-3.1L267,121.2c-3-7.5-13.7-7.5-16.7,0L234.2,161l-42.9,3.1c-8.1,0.6-11.3,10.7-5.2,15.9
			l32.8,27.8l-10.3,41.8c-2,7.9,6.6,14.1,13.5,9.8l36.5-22.7l36.5,22.7c6.8,4.2,15.4-2,13.5-9.8l-10.3-41.8l32.8-27.8
			C337.4,174.8,334.2,164.7,326.1,164.1z"/>
	</g>
</g>
<g>
	<g>
		<linearGradient id="SVGID_1_" gradientUnits="userSpaceOnUse" x1="-30.039" y1="479.8374" x2="480.961" y2="-29.1626">
			<stop  offset="0" style="stop-color:#A1812E"/>
			<stop  offset="0.5" style="stop-color:#CFAD56"/>
			<stop  offset="1" style="stop-color:#F4DE8B"/>
		</linearGradient>
		<path class="st1" d="M440.4,234l-24.8-33.9c-1.6-2.2-1.7-5.2-0.1-7.4l24.2-34.2c2.2-3.1,1.1-7.5-2.2-9.2l-37-19.8
			c-2.4-1.2-3.7-3.9-3.2-6.6l6.9-41.3c0.6-3.7-2.2-7.3-6-7.4l-41.9-1.8c-2.7-0.1-5.1-2-5.8-4.6l-11.6-40.4c-1-3.6-5.1-5.6-8.6-4
			L291.9,40c-2.5,1-5.4,0.4-7.3-1.6l-28-31.2c-2.6-2.8-6.9-2.8-9.5,0.1L219.6,39c-1.8,2.1-4.7,2.7-7.1,1.7l-38.7-16
			c-3.5-1.5-7.5,0.5-8.5,4.1l-11.1,40.4c-0.7,2.6-3,4.5-5.7,4.7l-41.9,2.4c-3.8,0.2-6.5,3.7-5.9,7.5l7.6,41.2
			c0.5,2.7-0.8,5.4-3.1,6.6l-36.7,20.3c-3.3,1.9-4.2,6.2-2.1,9.2L91.1,195c1.6,2.2,1.7,5.2,0.1,7.4L67,236.5
			c-2.2,3.1-1.1,7.5,2.2,9.2l37,19.8c2.4,1.2,3.7,3.9,3.2,6.6l-6.9,41.3c-0.6,3.7,2.2,7.3,6,7.4l41.9,1.8c2.7,0.1,5.1,2,5.8,4.6
			l11.7,40.3c1,3.6,5.1,5.6,8.6,4l38.5-16.6c2.5-1,5.4-0.4,7.3,1.6l28,31.2c2.6,2.8,6.9,2.8,9.5-0.1l27.6-31.6
			c1.8-2.1,4.7-2.7,7.1-1.7l38.7,16c3.5,1.5,7.5-0.5,8.5-4.1l11.1-40.4c0.7-2.6,3-4.5,5.7-4.7l41.9-2.4c3.8-0.2,6.5-3.7,5.9-7.5
			l-7.6-41.2c-0.5-2.7,0.8-5.4,3.1-6.6l36.7-20.3C441.7,241.4,442.7,237.1,440.4,234z M253.5,311.3c-62.7,0-113.8-51.1-113.8-113.8
			S190.8,83.8,253.5,83.8s113.8,51.1,113.8,113.8C367.2,260.4,316.2,311.3,253.5,311.3z"/>
		<linearGradient id="SVGID_2_" gradientUnits="userSpaceOnUse" x1="132.6322" y1="643.1478" x2="643.6322" y2="134.1478">
			<stop  offset="0" style="stop-color:#A1812E"/>
			<stop  offset="0.5" style="stop-color:#CFAD56"/>
			<stop  offset="1" style="stop-color:#F4DE8B"/>
		</linearGradient>
		<path class="st2" d="M355.9,384.9c-6,6.1-14.4,9.7-23.4,9.7c-3.2,0-6.4-0.5-9.4-1.3l-26.7-8.1l-20.6,18.9
			c-0.7,0.6-1.3,1.2-2.1,1.8l33.2,102.8c1.1,3.6,5.8,4.5,8.2,1.5l24.1-31c1.1-1.6,3.2-2.2,5-1.7l37.6,11c3.6,1,6.9-2.4,5.8-5.9
			L355.9,384.9z"/>
		<linearGradient id="SVGID_3_" gradientUnits="userSpaceOnUse" x1="56.0898" y1="566.3046" x2="567.0898" y2="57.3046">
			<stop  offset="0" style="stop-color:#A1812E"/>
			<stop  offset="0.5" style="stop-color:#CFAD56"/>
			<stop  offset="1" style="stop-color:#F4DE8B"/>
		</linearGradient>
		<path class="st3" d="M210.7,385.2l-26.7,8.1c-3.1,0.9-6.2,1.3-9.4,1.3c-9,0-17.3-3.6-23.4-9.7l-31.6,97.7
			c-1.1,3.6,2.2,6.9,5.8,5.9l37.6-11c1.9-0.5,3.8,0.1,5,1.7l24.1,31c2.3,3,7,2.2,8.2-1.5l33.2-102.8c-0.7-0.5-1.5-1.1-2.1-1.8
			L210.7,385.2z"/>
		<linearGradient id="SVGID_4_" gradientUnits="userSpaceOnUse" x1="-26.3192" y1="483.5718" x2="484.6808" y2="-25.4282">
			<stop  offset="0" style="stop-color:#A1812E"/>
			<stop  offset="0.5" style="stop-color:#CFAD56"/>
			<stop  offset="1" style="stop-color:#F4DE8B"/>
		</linearGradient>
		<path class="st4" d="M320.9,169.3l-42.9-3.1l-16.2-39.8c-3-7.5-13.7-7.5-16.7,0L229,166.2l-42.9,3.1c-8.1,0.6-11.3,10.7-5.2,15.9
			l32.8,27.8l-10.3,41.8c-2,7.9,6.6,14.1,13.5,9.8l36.5-22.7l36.5,22.7c6.8,4.2,15.4-2,13.5-9.8l-10.3-41.8l32.8-27.8
			C332.2,180,329,169.9,320.9,169.3z"/>
	</g>
</g>
</svg>
