<?xml version="1.0" encoding="utf-8"?>
<!-- Generator: Adobe Illustrator 21.0.0, SVG Export Plug-In . SVG Version: 6.00 Build 0)  -->
<svg version="1.1" id="Capa_1" xmlns="http://www.w3.org/2000/svg" xmlns:xlink="http://www.w3.org/1999/xlink" x="0px" y="0px"
	 width="512px" height="512px" viewBox="0 0 512 512" style="enable-background:new 0 0 512 512;" xml:space="preserve">
<style type="text/css">
	.st0{fill:#F4DE8B;}
	.st1{fill:url(#SVGID_1_);}
	.st2{fill:url(#SVGID_2_);}
	.st3{fill:url(#SVGID_3_);}
	.st4{fill:url(#SVGID_4_);}
	.st5{fill:url(#SVGID_5_);}
	.st6{fill:url(#SVGID_6_);}
</style>
<g>
	<g>
		<g>
			<path class="st0" d="M148.8,174.6L148.8,174.6c0.1,0,0.1,0,0.2,0s0.1,0,0.2,0l0,0c37.3-0.4,31.9-50.1,31.9-50.1
				c-1.6-33.3-29.4-33-32.1-32.9c-2.7-0.1-30.6-0.4-32.1,32.9C116.8,124.4,111.4,174.2,148.8,174.6z"/>
			<path class="st0" d="M226.8,124.4c0,0-5.4,49.8,31.9,50.1l0,0c0.1,0,0.1,0,0.2,0c0.1,0,0.1,0,0.2,0l0,0
				c37.3-0.4,31.9-50.1,31.9-50.1c-1.6-33.3-29.4-33-32.1-32.9C256.2,91.5,228.4,91.2,226.8,124.4z"/>
			<path class="st0" d="M336.8,124.4c0,0-5.4,49.8,31.9,50.1l0,0c0.1,0,0.1,0,0.2,0c0.1,0,0.1,0,0.2,0l0,0
				c37.3-0.4,31.9-50.1,31.9-50.1c-1.6-33.3-29.4-33-32.1-32.9C366.2,91.5,338.3,91.2,336.8,124.4z"/>
			<path class="st0" d="M432.3,208.5c-3.2-3.2-4.9-4.8-8.5-7.5c-13.8-10.2-30.8-17-30.8-17l-13,40.9l-7.6-21.5
				c13.6-18.9-1.6-19.5-3.6-19.5c-2.1,0-17.2,0.5-3.6,19.5l-7.6,21.5l-13-40.9c0,0-16.9,6.9-30.8,17c0,0,0,0-0.1,0c0,0,0,0-0.1,0
				c-13.8-10.2-30.8-17-30.8-17l-13,40.9l-7.6-21.5c13.6-18.9-1.6-19.5-3.6-19.5c-2.1,0-17.2,0.5-3.6,19.5l-7.6,21.5l-13-40.9
				c0,0-16.9,6.9-30.8,17c0,0,0,0-0.1,0c0,0,0,0-0.1,0c-13.8-10.2-30.8-17-30.8-17l-13,40.9l-7.6-21.5c13.6-18.9-1.6-19.5-3.6-19.5
				c-2.1,0-17.2,0.5-3.6,19.5l-7.6,21.5l-13-40.9c0,0-16.9,6.9-30.8,17c-3.6,2.7-5.3,4.3-8.5,7.5c-7.7,7.7-4.5,52,0,68.3
				c4.5,16.3,17.4,39.6,17.4,39.6c2.6,5.9,4.3,12.2,4.9,18.7l16.6,162.9c0.5,5.2,4.9,9.1,10.1,9.1h14.3h14.3c5.2,0,9.6-3.9,10.1-9.1
				L189.1,335c0.6-6.4,2.3-12.8,4.9-18.7c0,0,4.5-7.9,9-17.8c4.6,9.9,9,17.8,9,17.8c2.6,5.9,4.3,12.2,4.9,18.7l16.6,162.9
				c0.5,5.2,4.9,9.1,10.1,9.1h15.4h14.3c5.2,0,9.6-3.9,10.1-9.1L299.9,335c0.6-6.4,2.3-12.8,4.9-18.7c0,0,4.5-7.9,9-17.8
				c4.6,9.9,9,17.8,9,17.8c2.6,5.9,4.3,12.2,4.9,18.7l16.6,162.9c0.5,5.2,4.9,9.1,10.1,9.1h14.3h14.3c5.2,0,9.6-3.9,10.1-9.1
				L409.8,335c0.6-6.4,2.3-12.8,4.9-18.7c0,0,13-23.3,17.4-39.6C436.7,260.5,440,216,432.3,208.5z"/>
			<path class="st0" d="M204.1,83.1L204.1,83.1c0.1,0,0.1,0,0.2,0c0.1,0,0.1,0,0.2,0l0,0c37.3-0.4,31.9-50.1,31.9-50.1
				C234.8-0.4,207-0.1,204.3,0c-2.7-0.1-30.6-0.4-32.1,32.9C172.2,32.9,166.8,82.7,204.1,83.1z"/>
			<path class="st0" d="M314.1,83.1L314.1,83.1c0.1,0,0.1,0,0.2,0s0.1,0,0.2,0l0,0c37.3-0.4,31.9-50.1,31.9-50.1
				c-1.6-33.3-29.4-33-32.1-32.9c-2.7-0.1-30.6-0.4-32.1,32.9C282.2,32.9,276.8,82.7,314.1,83.1z"/>
		</g>
	</g>
	<g>
		<g>
			<linearGradient id="SVGID_1_" gradientUnits="userSpaceOnUse" x1="-114.7884" y1="396.2136" x2="392.2213" y2="-110.7962">
				<stop  offset="0" style="stop-color:#A1812E"/>
				<stop  offset="0.5" style="stop-color:#CFAD56"/>
				<stop  offset="1" style="stop-color:#F4DE8B"/>
			</linearGradient>
			<path class="st1" d="M143.8,179.6L143.8,179.6c0.1,0,0.1,0,0.2,0c0.1,0,0.1,0,0.2,0l0,0c37.3-0.4,31.9-50.1,31.9-50.1
				c-1.6-33.3-29.4-33-32.1-32.9c-2.7-0.1-30.6-0.4-32.1,32.9C111.8,129.4,106.4,179.2,143.8,179.6z"/>
			<linearGradient id="SVGID_2_" gradientUnits="userSpaceOnUse" x1="-59.8449" y1="451.1571" x2="447.1649" y2="-55.8527">
				<stop  offset="0" style="stop-color:#A1812E"/>
				<stop  offset="0.5" style="stop-color:#CFAD56"/>
				<stop  offset="1" style="stop-color:#F4DE8B"/>
			</linearGradient>
			<path class="st2" d="M221.9,129.4c0,0-5.4,49.8,31.9,50.1l0,0c0.1,0,0.1,0,0.2,0s0.1,0,0.2,0l0,0c37.3-0.4,31.9-50.1,31.9-50.1
				c-1.6-33.3-29.4-33-32.1-32.9C251.2,96.5,223.4,96.1,221.9,129.4z"/>
			<linearGradient id="SVGID_3_" gradientUnits="userSpaceOnUse" x1="-4.8788" y1="506.1232" x2="502.131" y2="-0.8866">
				<stop  offset="0" style="stop-color:#A1812E"/>
				<stop  offset="0.5" style="stop-color:#CFAD56"/>
				<stop  offset="1" style="stop-color:#F4DE8B"/>
			</linearGradient>
			<path class="st3" d="M331.8,129.4c0,0-5.4,49.8,31.9,50.1l0,0c0.1,0,0.1,0,0.2,0s0.1,0,0.2,0l0,0c37.3-0.4,31.9-50.1,31.9-50.1
				c-1.6-33.3-29.4-33-32.1-32.9C361.2,96.5,333.3,96.1,331.8,129.4z"/>
			<linearGradient id="SVGID_4_" gradientUnits="userSpaceOnUse" x1="41.3626" y1="552.3645" x2="548.3723" y2="45.3548">
				<stop  offset="0" style="stop-color:#A1812E"/>
				<stop  offset="0.5" style="stop-color:#CFAD56"/>
				<stop  offset="1" style="stop-color:#F4DE8B"/>
			</linearGradient>
			<path class="st4" d="M427.3,213.4c-3.2-3.2-4.9-4.8-8.5-7.5c-13.8-10.2-30.8-17-30.8-17l-13,40.9l-7.6-21.5
				c13.6-18.9-1.6-19.5-3.6-19.5s-17.2,0.5-3.6,19.5l-7.6,21.5l-13-40.9c0,0-16.9,6.9-30.8,17c0,0,0,0-0.1,0c0,0,0,0-0.1,0
				c-13.8-10.2-30.8-17-30.8-17l-13,40.9l-7.6-21.5c13.6-18.9-1.6-19.5-3.6-19.5c-2.1,0-17.2,0.5-3.6,19.5l-7.6,21.5l-13-40.9
				c0,0-16.9,6.9-30.8,17c0,0,0,0-0.1,0c0,0,0,0-0.1,0c-13.8-10.2-30.8-17-30.8-17l-13,40.9l-7.6-21.5c13.6-18.9-1.6-19.5-3.6-19.5
				c-2.1,0-17.2,0.5-3.6,19.5l-7.6,21.5l-13-40.9c0,0-16.9,6.9-30.8,17c-3.6,2.7-5.3,4.3-8.5,7.5c-7.7,7.7-4.5,52,0,68.3
				c4.5,16.3,17.4,39.6,17.4,39.6c2.6,5.9,4.3,12.2,4.9,18.7l16.6,162.9c0.5,5.2,4.9,9.1,10.1,9.1h14.3h14.3c5.2,0,9.6-3.9,10.1-9.1
				L184.1,340c0.6-6.4,2.3-12.8,4.9-18.7c0,0,4.5-7.9,9-17.8c4.6,9.9,9,17.8,9,17.8c2.6,5.9,4.3,12.2,4.9,18.7l16.6,162.9
				c0.5,5.2,4.9,9.1,10.1,9.1h15.4h14.3c5.2,0,9.6-3.9,10.1-9.1L294.9,340c0.6-6.4,2.3-12.8,4.9-18.7c0,0,4.5-7.9,9-17.8
				c4.6,9.9,9,17.8,9,17.8c2.6,5.9,4.3,12.2,4.9,18.7l16.6,162.9c0.5,5.2,4.9,9.1,10.1,9.1h14.3h14.3c5.2,0,9.6-3.9,10.1-9.1
				L404.8,340c0.6-6.4,2.3-12.8,4.9-18.7c0,0,13-23.3,17.4-39.6C431.8,265.5,435,221,427.3,213.4z"/>
			<linearGradient id="SVGID_5_" gradientUnits="userSpaceOnUse" x1="-132.9028" y1="378.0992" x2="374.1069" y2="-128.9106">
				<stop  offset="0" style="stop-color:#A1812E"/>
				<stop  offset="0.5" style="stop-color:#CFAD56"/>
				<stop  offset="1" style="stop-color:#F4DE8B"/>
			</linearGradient>
			<path class="st5" d="M199.1,88L199.1,88c0.1,0,0.1,0,0.2,0c0.1,0,0.1,0,0.2,0l0,0c37.3-0.4,31.9-50.1,31.9-50.1
				C229.8,4.6,202,4.9,199.3,5c-2.7-0.1-30.6-0.4-32.1,32.9C167.2,37.9,161.9,87.7,199.1,88z"/>
			<linearGradient id="SVGID_6_" gradientUnits="userSpaceOnUse" x1="-77.8848" y1="433.1172" x2="429.125" y2="-73.8926">
				<stop  offset="0" style="stop-color:#A1812E"/>
				<stop  offset="0.5" style="stop-color:#CFAD56"/>
				<stop  offset="1" style="stop-color:#F4DE8B"/>
			</linearGradient>
			<path class="st6" d="M309.2,88L309.2,88c0.1,0,0.1,0,0.2,0c0.1,0,0.1,0,0.2,0l0,0c37.3-0.4,31.9-50.1,31.9-50.1
				c-1.6-33.3-29.4-33-32.1-32.9c-2.7-0.1-30.6-0.4-32.1,32.9C277.2,37.9,271.8,87.7,309.2,88z"/>
		</g>
	</g>
</g>
</svg>
