<?xml version="1.0" encoding="utf-8"?>
<!-- Generator: Adobe Illustrator 21.0.0, SVG Export Plug-In . SVG Version: 6.00 Build 0)  -->
<svg version="1.1" id="Layer_1" xmlns="http://www.w3.org/2000/svg" xmlns:xlink="http://www.w3.org/1999/xlink" x="0px" y="0px"
	 width="512px" height="512px" viewBox="0 0 512 512" style="enable-background:new 0 0 512 512;" xml:space="preserve">
<style type="text/css">
	.st0{fill:#F4DE8B;}
	.st1{fill:url(#SVGID_1_);}
	.st2{fill:url(#SVGID_2_);}
	.st3{fill:url(#SVGID_3_);}
	.st4{fill:url(#SVGID_4_);}
	.st5{fill:url(#SVGID_5_);}
</style>
<g>
	<g>
		<g>
			<g>
				<path class="st0" d="M221.3,405c-13.1-10.6-30.4-16.4-48.7-16.4h-70.3v59.2c0,16.3,7.7,31.5,21.6,42.8
					c13.1,10.6,30.4,16.4,48.7,16.4h70.3v-59.2C242.9,431.4,235.2,416.2,221.3,405z"/>
			</g>
		</g>
		<g>
			<g>
				<path class="st0" d="M344.4,388.5c-18.3,0-35.6,5.8-48.7,16.4c-13.9,11.2-21.6,26.4-21.6,42.8V507h70.3
					c18.3,0,35.6-5.8,48.7-16.4c13.9-11.2,21.6-26.4,21.6-42.8v-59.2L344.4,388.5L344.4,388.5z"/>
			</g>
		</g>
		<g>
			<g>
				<path class="st0" d="M329.5,252.8c-30.5,0-55.3,21.1-55.3,47v47h55.3c30.5,0,55.3-21.1,55.3-47v-47L329.5,252.8L329.5,252.8z"/>
			</g>
		</g>
		<g>
			<g>
				<path class="st0" d="M187.6,252.8h-55.3v47c0,25.9,24.8,47,55.3,47h55.3v-47C242.9,273.9,218.1,252.8,187.6,252.8z"/>
			</g>
		</g>
		<g>
			<g>
				<path class="st0" d="M274.1,111.1V56c25.8,4.6,25.8,20.6,25.8,26.5h31.2c0-32.4-21-53.4-57-57.9V0h-31.2v24.5
					c-36,4.6-57,25.5-57,57.9c0,32.4,21,53.4,57,57.9v55.1c-25.8-4.6-25.8-20.6-25.8-26.5h-31.2c0,32.4,21,53.4,57,57.9v24.5h31.2
					V227c36-4.6,57-25.5,57-57.9C331.1,136.6,310.1,115.7,274.1,111.1z M242.9,108.9c-25.8-4.6-25.8-20.6-25.8-26.5
					c0-5.8,0-21.9,25.8-26.5V108.9z M274.1,195.5v-52.9c25.8,4.6,25.8,20.6,25.8,26.5S299.9,190.9,274.1,195.5z"/>
			</g>
		</g>
	</g>
	<g>
		<g>
			<g>
				<linearGradient id="SVGID_1_" gradientUnits="userSpaceOnUse" x1="128.6039" y1="519.7702" x2="420.1734" y2="18.7917">
					<stop  offset="0" style="stop-color:#A1812E"/>
					<stop  offset="0.5" style="stop-color:#CFAD56"/>
					<stop  offset="1" style="stop-color:#F4DE8B"/>
				</linearGradient>
				<path class="st1" d="M216.3,410c-13.1-10.6-30.4-16.4-48.7-16.4H97.3v59.2c0,16.3,7.7,31.5,21.6,42.8
					c13.1,10.6,30.4,16.4,48.7,16.4h70.3v-59.2C237.9,436.4,230.2,421.2,216.3,410z"/>
			</g>
		</g>
		<g>
			<g>
				<linearGradient id="SVGID_2_" gradientUnits="userSpaceOnUse" x1="256.9306" y1="594.4563" x2="548.5001" y2="93.4779">
					<stop  offset="0" style="stop-color:#A1812E"/>
					<stop  offset="0.5" style="stop-color:#CFAD56"/>
					<stop  offset="1" style="stop-color:#F4DE8B"/>
				</linearGradient>
				<path class="st2" d="M339.4,393.5c-18.3,0-35.6,5.8-48.7,16.4c-13.9,11.2-21.6,26.4-21.6,42.8V512h70.3
					c18.3,0,35.6-5.8,48.7-16.4c13.9-11.2,21.6-26.4,21.6-42.8v-59.2L339.4,393.5L339.4,393.5z"/>
			</g>
		</g>
		<g>
			<g>
				<linearGradient id="SVGID_3_" gradientUnits="userSpaceOnUse" x1="181.4426" y1="550.5223" x2="473.012" y2="49.5438">
					<stop  offset="0" style="stop-color:#A1812E"/>
					<stop  offset="0.5" style="stop-color:#CFAD56"/>
					<stop  offset="1" style="stop-color:#F4DE8B"/>
				</linearGradient>
				<path class="st3" d="M324.4,257.8c-30.5,0-55.3,21.1-55.3,47v47h55.3c30.5,0,55.3-21.1,55.3-47v-47L324.4,257.8L324.4,257.8z"/>
			</g>
		</g>
		<g>
			<g>
				<linearGradient id="SVGID_4_" gradientUnits="userSpaceOnUse" x1="75.4546" y1="488.8373" x2="367.0241" y2="-12.1412">
					<stop  offset="0" style="stop-color:#A1812E"/>
					<stop  offset="0.5" style="stop-color:#CFAD56"/>
					<stop  offset="1" style="stop-color:#F4DE8B"/>
				</linearGradient>
				<path class="st4" d="M182.6,257.8h-55.3v47c0,25.9,24.8,47,55.3,47h55.3v-47C237.9,278.9,213.1,257.8,182.6,257.8z"/>
			</g>
		</g>
		<g>
			<g>
				<linearGradient id="SVGID_5_" gradientUnits="userSpaceOnUse" x1="52.7771" y1="475.6389" x2="344.3465" y2="-25.3395">
					<stop  offset="0" style="stop-color:#A1812E"/>
					<stop  offset="0.5" style="stop-color:#CFAD56"/>
					<stop  offset="1" style="stop-color:#F4DE8B"/>
				</linearGradient>
				<path class="st5" d="M269.1,116.1V61c25.8,4.6,25.8,20.6,25.8,26.5h31.2c0-32.4-21-53.4-57-57.9V5h-31.2v24.5
					c-36,4.6-57,25.5-57,57.9c0,32.4,21,53.4,57,57.9v55.1c-25.8-4.6-25.8-20.6-25.8-26.5h-31.2c0,32.4,21,53.4,57,57.9v24.5h31.2
					V232c36-4.6,57-25.5,57-57.9C326.1,141.6,305.1,120.7,269.1,116.1z M237.9,113.9c-25.8-4.6-25.8-20.6-25.8-26.5
					c0-5.8,0-21.9,25.8-26.5V113.9z M269.1,200.5v-52.9c25.8,4.6,25.8,20.6,25.8,26.5S294.9,196,269.1,200.5z"/>
			</g>
		</g>
	</g>
</g>
</svg>
