<?xml version="1.0" encoding="utf-8"?>
<!-- Generator: Adobe Illustrator 21.0.0, SVG Export Plug-In . SVG Version: 6.00 Build 0)  -->
<svg version="1.1" id="Capa_1" xmlns="http://www.w3.org/2000/svg" xmlns:xlink="http://www.w3.org/1999/xlink" x="0px" y="0px"
	 width="512px" height="512px" viewBox="0 0 512 512" style="enable-background:new 0 0 512 512;" xml:space="preserve">
<style type="text/css">
	.st0{fill:#F4DE8B;}
	.st1{fill:url(#SVGID_1_);}
	.st2{fill:url(#SVGID_2_);}
	.st3{fill:url(#SVGID_3_);}
	.st4{fill:url(#SVGID_4_);}
	.st5{fill:url(#SVGID_5_);}
</style>
<g>
	<g>
		<g>
			<path class="st0" d="M183.1,271.5c3-11.7,9.2-22.4,18-31.9c-14.8-9.6-27.2-22.7-35.7-38.1h28.2c3.7,12.1,8.5,22.7,13.7,32
				c3.6-3.3,7.6-6.4,11.8-9c2-1.4,4-2.6,5.9-3.7c-3.2-5.8-6.1-12.3-8.7-19.3h31.9v11.3c1.9-0.3,3.7-0.5,5.6-0.5
				c2.2-0.2,4.4-0.3,6.5-0.3c3.2,0,6.4,0.2,9.4,0.6v-11h32c-2.4,6.8-5.3,13-8.3,18.6c0.6,0.3,1.1,0.6,1.8,0.9
				c6.9,3.9,12,8.3,15.5,12.2c5.2-9.3,10-19.9,13.6-31.9h28.2c-8.3,15-20.1,27.7-34.4,37.2c2.8,2.1,5.5,4.6,8,7.7
				c5.1,6.5,8.4,14.6,10.1,24.3c39.9-25.5,66.3-70.2,66.3-120.9c0-79.1-64.3-143.6-143.6-143.6c-79.1,0-143.6,64.3-143.6,143.6
				C115.4,201,142.5,246.2,183.1,271.5z M361.5,119.4c2.8,9.6,4.4,19.8,4.4,30.3s-1.6,20.7-4.4,30.3h-32.2
				c1.6-9.5,2.5-19.5,2.5-30.3c0-10.8-0.9-20.9-2.5-30.3C329.3,119.4,361.5,119.4,361.5,119.4z M352.5,97.9h-28.2
				c-5.8-18.8-14.3-34.3-23-46.4C323,60.9,341.1,77.4,352.5,97.9z M269.6,47.5C280.1,58,293,74.5,301.5,98h-31.9V47.5L269.6,47.5z
				 M269.6,119.4h37.7c1.8,9.3,2.9,19.4,2.9,30.3c0,10.9-1,21-2.8,30.3h-37.8L269.6,119.4L269.6,119.4z M248.2,180.1h-37.7
				c-1.8-9.3-2.9-19.4-2.9-30.3c0-10.9,1-21,2.8-30.3h37.8V180.1z M248.2,97.9h-32c8.4-23.5,21.6-40.2,32-50.6V97.9z M216.5,51.5
				c-8.7,12.2-17.2,27.6-23,46.4h-28.2C176.8,77.4,194.8,60.9,216.5,51.5z M151.9,149.7c0-10.5,1.6-20.7,4.4-30.3h32.2
				c-1.6,9.5-2.5,19.5-2.5,30.3c0,10.8,0.9,20.9,2.5,30.3h-32.2C153.5,170.4,151.9,160.2,151.9,149.7z"/>
			<path class="st0" d="M487.2,428.9c-23.9-9.2-38.2-18.4-38.2-18.4l-18.4,58.3l-2.5,7.9l-8.2-23.4c18.9-26.4-1.5-27.7-5-27.7l0,0
				c0,0,0,0-0.1,0c0,0,0,0-0.1,0c0,0,0,0-0.1,0c0,0,0,0-0.1,0l0,0c-3.5,0-23.9,1.2-5,27.7l-8.2,23.4l-2.5-7.9l-18.4-58.3
				c0,0-8,5.2-22.2,11.8c-3.5-2.7-7.8-5-13-7c-28.4-10.8-45.5-22-45.5-22l-22,69.3l-3,9.4l-9.8-27.8c22.6-31.4-1.7-33-5.9-33l0,0
				c0,0,0,0-0.1,0c0,0,0,0-0.1,0c0,0,0,0-0.1,0c0,0,0,0-0.1,0l0,0c-4.2,0-28.5,1.6-5.9,33l-9.8,27.8l-3-9.4l-22-69.3
				c0,0-17.1,11.1-45.5,22c-5.2,1.9-9.5,4.2-13,7c-14.2-6.5-22.2-11.8-22.2-11.8l-18.4,58.3l-2.5,7.9l-8.2-23.4
				c18.9-26.4-1.5-27.7-5-27.7l0,0c0,0,0,0-0.1,0c0,0,0,0-0.1,0c0,0,0,0-0.1,0s0,0-0.1,0l0,0c-3.5,0-23.9,1.2-5,27.7l-8.2,23.4
				l-2.5-7.9l-18.4-58.3c0,0-14.4,9.4-38.2,18.4C3.9,438.5,5.5,460.2,5,500.8h92.8h5h39.4h58.3h52.2h6h57.9h58.3h34.6h5H512
				C511.9,460.2,513.6,438.5,487.2,428.9z"/>
			<path class="st0" d="M401.6,277.7c-4,1.4-7.6,3.3-10.9,5.6c-4.1,2.6-7.8,5.7-11.2,9.3c-5.3,5.4-10.1,12.5-12.1,21.2
				c-1.8,6.6-1.4,13.4,0.1,20.7l0,0c0.4,2.2,0.9,4.3,1.8,6.5c-4.1-0.4-8.7,2-4.3,17.7c3.2,11.6,6.2,14.8,8.5,14.9
				c2.1,13.7,12.7,31.1,30,37.2c7.1,2.5,14.9,2.5,22.1,0c17.1-6.1,28-23.5,30.1-37.2c2.3-0.2,5.3-3.4,8.5-14.9
				c4.5-15.7-0.3-18.1-4.3-17.7c0.7-2.2,1.4-4.4,1.8-6.5c6.8-40.8-13.3-42.2-13.3-42.2s-3.3-6.4-12.1-11.2
				c-5.8-3.4-14.1-6.1-24.9-5.2C408.1,275.9,404.8,276.5,401.6,277.7L401.6,277.7z"/>
			<path class="st0" d="M62.1,373.5c2.1,13.7,12.7,31.1,30,37.2c7.1,2.5,14.9,2.5,22.1,0c17.1-6.1,28-23.5,30.1-37.2
				c2.3-0.2,5.3-3.4,8.5-14.9c4.5-15.7-0.3-18.1-4.3-17.7c0.7-2.2,1.4-4.4,1.8-6.5c6.8-40.8-13.3-42.2-13.3-42.2s-3.3-6.4-12.1-11.2
				c-5.8-3.4-14.1-6.1-24.9-5.2c-3.5,0.2-6.8,0.8-9.9,1.9l0,0c-4,1.4-7.6,3.3-10.8,5.6c-4.1,2.6-7.8,5.7-11.2,9.3
				c-5.3,5.4-10.1,12.5-12.1,21.2c-1.8,6.6-1.4,13.4,0.1,20.7l0,0c0.4,2.2,0.9,4.3,1.8,6.5c-4-0.4-8.7,2-4.3,17.7
				C56.7,370.1,59.8,373.3,62.1,373.5z"/>
			<path class="st0" d="M199.8,331.5c3.9,13.7,7.5,17.5,10.2,17.8c2.5,16.3,15.1,37.1,35.7,44.2c8.4,3,17.8,3,26.2-0.1
				c20.3-7.3,33.3-28,35.8-44.2c2.7-0.2,6.4-4.1,10.2-17.8c5.3-18.7-0.3-21.6-5.1-21c0.9-2.6,1.6-5.2,2.1-7.7
				c8.1-48.5-15.8-50.2-15.8-50.2s-4-7.6-14.4-13.4c-7-4.2-16.8-7.4-29.6-6.2c-4.2,0.2-8.1,1-11.8,2.3l0,0c-4.7,1.6-9.1,4-12.9,6.7
				c-4.8,3-9.4,6.8-13.3,11c-6.4,6.5-12,14.8-14.4,25.3c-2.1,7.8-1.6,15.9,0.1,24.7l0,0c0.4,2.6,1.1,5.1,2.1,7.7
				C200.1,310,194.5,312.7,199.8,331.5z"/>
		</g>
	</g>
	<g>
		<g>
			<linearGradient id="SVGID_1_" gradientUnits="userSpaceOnUse" x1="-51.9037" y1="459.9935" x2="459.0963" y2="-50.0065">
				<stop  offset="0" style="stop-color:#A1812E"/>
				<stop  offset="0.5" style="stop-color:#CFAD56"/>
				<stop  offset="1" style="stop-color:#F4DE8B"/>
			</linearGradient>
			<path class="st1" d="M178.1,276.5c3-11.7,9.2-22.4,18-31.9c-14.8-9.6-27.2-22.7-35.7-38.1h28.2c3.7,12.1,8.5,22.7,13.7,32
				c3.6-3.3,7.6-6.4,11.8-9c2-1.4,4-2.6,5.9-3.7c-3.2-5.8-6.1-12.3-8.7-19.3h31.9v11.3c1.9-0.3,3.7-0.5,5.6-0.5
				c2.2-0.2,4.4-0.3,6.5-0.3c3.2,0,6.4,0.2,9.4,0.6v-11h32c-2.4,6.8-5.3,13-8.3,18.6c0.6,0.3,1.1,0.6,1.8,0.9
				c6.9,3.9,12,8.3,15.5,12.2c5.2-9.3,10-19.9,13.6-31.9h28.2c-8.3,15-20.1,27.7-34.4,37.2c2.8,2.1,5.5,4.6,8,7.7
				c5.1,6.5,8.4,14.6,10.1,24.3c39.9-25.5,66.3-70.2,66.3-120.9c0-79.1-64.3-143.6-143.6-143.6c-79.1,0-143.6,64.3-143.6,143.6
				C110.4,206,137.5,251.2,178.1,276.5z M356.5,124.4c2.8,9.6,4.4,19.8,4.4,30.3s-1.6,20.7-4.4,30.3h-32.2
				c1.6-9.5,2.5-19.5,2.5-30.3s-0.9-20.9-2.5-30.3C324.3,124.4,356.5,124.4,356.5,124.4z M347.5,102.9h-28.2
				c-5.8-18.8-14.3-34.3-23-46.4C318,65.9,336.1,82.4,347.5,102.9z M264.6,52.5C275,63,288,79.5,296.5,103h-31.9V52.5L264.6,52.5z
				 M264.6,124.4h37.7c1.8,9.3,2.9,19.4,2.9,30.3s-1,21-2.8,30.3h-37.8L264.6,124.4L264.6,124.4z M243.2,185.1h-37.7
				c-1.8-9.3-2.9-19.4-2.9-30.3s1-21,2.8-30.3h37.8V185.1z M243.2,102.9h-32c8.4-23.5,21.6-40.2,32-50.6V102.9z M211.5,56.5
				c-8.7,12.2-17.2,27.6-23,46.4h-28.2C171.8,82.4,189.8,65.9,211.5,56.5z M146.9,154.7c0-10.5,1.6-20.7,4.4-30.3h32.2
				c-1.6,9.5-2.5,19.5-2.5,30.3s0.9,20.9,2.5,30.3h-32.2C148.5,175.4,146.9,165.2,146.9,154.7z"/>
			<linearGradient id="SVGID_2_" gradientUnits="userSpaceOnUse" x1="110.34" y1="622.5554" x2="621.34" y2="112.5554">
				<stop  offset="0" style="stop-color:#A1812E"/>
				<stop  offset="0.5" style="stop-color:#CFAD56"/>
				<stop  offset="1" style="stop-color:#F4DE8B"/>
			</linearGradient>
			<path class="st2" d="M482.2,433.9c-23.9-9.2-38.2-18.4-38.2-18.4l-18.4,58.3l-2.5,7.9l-8.2-23.4c18.9-26.4-1.5-27.7-5-27.7l0,0
				c0,0,0,0-0.1,0c0,0,0,0-0.1,0c0,0,0,0-0.1,0c0,0,0,0-0.1,0l0,0c-3.5,0-23.9,1.2-5,27.7l-8.2,23.4l-2.5-7.9l-18.4-58.3
				c0,0-8,5.2-22.2,11.8c-3.5-2.7-7.8-5-13-7c-28.4-10.8-45.5-22-45.5-22l-22,69.3l-3,9.4l-9.8-27.8c22.6-31.4-1.7-33-5.9-33l0,0
				c0,0,0,0-0.1,0c0,0,0,0-0.1,0c0,0,0,0-0.1,0c0,0,0,0-0.1,0l0,0c-4.2,0-28.5,1.6-5.9,33l-9.8,27.8l-3-9.4l-22-69.3
				c0,0-17.1,11.1-45.5,22c-5.2,1.9-9.5,4.2-13,7c-14.2-6.5-22.2-11.8-22.2-11.8l-18.4,58.3l-2.5,7.9l-8.2-23.4
				c18.9-26.4-1.5-27.7-5-27.7l0,0c0,0,0,0-0.1,0c0,0,0,0-0.1,0c0,0,0,0-0.1,0c-0.1,0,0,0-0.1,0l0,0c-3.5,0-23.9,1.2-5,27.7
				l-8.2,23.4l-2.5-7.9l-18.4-58.3c0,0-14.4,9.4-38.2,18.4C-1.1,443.5,0.5,465.2,0,505.8h92.8h5h39.4h58.3h52.2h6h57.9h58.3h34.6h5
				H507C506.9,465.2,508.6,443.5,482.2,433.9z"/>
			<linearGradient id="SVGID_3_" gradientUnits="userSpaceOnUse" x1="122.0809" y1="634.3193" x2="633.0809" y2="124.3193">
				<stop  offset="0" style="stop-color:#A1812E"/>
				<stop  offset="0.5" style="stop-color:#CFAD56"/>
				<stop  offset="1" style="stop-color:#F4DE8B"/>
			</linearGradient>
			<path class="st3" d="M396.6,282.7c-4,1.4-7.6,3.3-10.9,5.6c-4.1,2.6-7.8,5.7-11.2,9.3c-5.3,5.4-10.1,12.5-12.1,21.2
				c-1.8,6.6-1.4,13.4,0.1,20.7l0,0c0.4,2.2,0.9,4.3,1.8,6.5c-4.1-0.4-8.7,2-4.3,17.7c3.2,11.6,6.2,14.8,8.5,14.9
				c2.1,13.7,12.7,31.1,30,37.2c7.1,2.5,14.9,2.5,22.1,0c17.1-6.1,28-23.5,30.1-37.2c2.3-0.2,5.3-3.4,8.5-14.9
				c4.5-15.7-0.3-18.1-4.3-17.7c0.7-2.2,1.4-4.4,1.8-6.5c6.8-40.8-13.3-42.2-13.3-42.2s-3.3-6.4-12.1-11.2
				c-5.8-3.4-14.1-6.1-24.9-5.2C403.1,280.9,399.8,281.5,396.6,282.7L396.6,282.7z"/>
			<linearGradient id="SVGID_4_" gradientUnits="userSpaceOnUse" x1="-33.3312" y1="478.6025" x2="477.6688" y2="-31.3975">
				<stop  offset="0" style="stop-color:#A1812E"/>
				<stop  offset="0.5" style="stop-color:#CFAD56"/>
				<stop  offset="1" style="stop-color:#F4DE8B"/>
			</linearGradient>
			<path class="st4" d="M57.1,378.5c2.1,13.7,12.7,31.1,30,37.2c7.1,2.5,14.9,2.5,22.1,0c17.1-6.1,28-23.5,30.1-37.2
				c2.3-0.2,5.3-3.4,8.5-14.9c4.5-15.7-0.3-18.1-4.3-17.7c0.7-2.2,1.4-4.4,1.8-6.5c6.8-40.8-13.3-42.2-13.3-42.2s-3.3-6.4-12.1-11.2
				c-5.8-3.4-14.1-6.1-24.9-5.2c-3.5,0.2-6.8,0.8-9.9,1.9l0,0c-4,1.4-7.6,3.3-10.8,5.6c-4.1,2.6-7.8,5.7-11.2,9.3
				c-5.3,5.4-10.1,12.5-12.1,21.2c-1.8,6.6-1.4,13.4,0.1,20.7l0,0c0.4,2.2,0.9,4.3,1.8,6.5c-4-0.4-8.7,2-4.3,17.7
				C51.7,375.1,54.8,378.3,57.1,378.5z"/>
			<linearGradient id="SVGID_5_" gradientUnits="userSpaceOnUse" x1="29.2334" y1="541.2897" x2="540.2334" y2="31.2897">
				<stop  offset="0" style="stop-color:#A1812E"/>
				<stop  offset="0.5" style="stop-color:#CFAD56"/>
				<stop  offset="1" style="stop-color:#F4DE8B"/>
			</linearGradient>
			<path class="st5" d="M194.8,336.5c3.9,13.7,7.5,17.5,10.2,17.8c2.5,16.3,15.1,37.1,35.7,44.2c8.4,3,17.8,3,26.2-0.1
				c20.3-7.3,33.3-28,35.8-44.2c2.7-0.2,6.4-4.1,10.2-17.8c5.3-18.7-0.3-21.6-5.1-21c0.9-2.6,1.6-5.2,2.1-7.7
				c8.1-48.5-15.8-50.2-15.8-50.2s-4-7.6-14.4-13.4c-7-4.2-16.8-7.4-29.6-6.2c-4.2,0.2-8.1,1-11.8,2.3l0,0c-4.7,1.6-9.1,4-12.9,6.7
				c-4.8,3-9.4,6.8-13.3,11c-6.4,6.5-12,14.8-14.4,25.3c-2.1,7.8-1.6,15.9,0.1,24.7l0,0c0.4,2.6,1.1,5.1,2.1,7.7
				C195.1,315,189.5,317.7,194.8,336.5z"/>
		</g>
	</g>
</g>
</svg>
