<?xml version="1.0" encoding="utf-8"?>
<!-- Generator: Adobe Illustrator 21.0.0, SVG Export Plug-In . SVG Version: 6.00 Build 0)  -->
<svg version="1.1" id="_x3C_Слой_x3E_" xmlns="http://www.w3.org/2000/svg" xmlns:xlink="http://www.w3.org/1999/xlink" x="0px"
	 y="0px" width="512px" height="324px" viewBox="0 0 512 324" style="enable-background:new 0 0 512 324;" xml:space="preserve">
<style type="text/css">
	.st0{fill:#F7EBBC;}
	.st1{fill:url(#SVGID_1_);}
	.st2{fill:url(#SVGID_2_);}
</style>
<g>
	<path class="st0" d="M38.8,269.1c0,0.4-0.1,0.8-0.2,1c-3,0.3-3,1.9-2.9,6.4c0,1,0,2.1,0,3.4c0,0.6,0.3,1.2,0.9,1.7
		c-7.9,6.7-19.4,7.5-28,2c-7.4-4.7-10.3-12.9-7.8-21.8c2-7.1,7.6-12.5,14.8-14.4c2-0.5,3.8-0.7,5.4-0.7c3.5,0,6.3,0.9,8.6,1.8
		c1.6,0.5,3,1,4.3,1.1c0.3,3.5,0.8,6.5,1.3,9.1l-1.8,0.3c-1.6-5.4-4.3-8.3-8.8-9.6c-4.4-1.2-8.6-0.8-11.9,1.4
		c-2.9,1.9-5.2,5.1-6.4,9.1c-2.9,9.3,0.3,21.1,10.6,24.6c4.9,1.7,10.9,0.7,13.9-2.2l0,0v-0.1c0-1.8,0-3.2,0.1-4.5
		c0.1-6.9,0.1-7.1-5.1-7.5c-0.1-0.2-0.2-0.5-0.2-1c0-0.4,0.1-0.8,0.2-1h12.8C38.8,268.3,38.8,268.7,38.8,269.1z M90,255.9
		c3.7,6.4,3.5,15.5-0.3,22.1c-3.3,5.8-9.1,8.9-16.1,8.9c-10.9,0-18.9-8.1-18.9-19.3c0-12.3,7.3-18.7,14.2-20.5
		c1.7-0.4,3.4-0.7,5-0.7C80.5,246.6,86.6,250,90,255.9z M87.1,265.4c-0.5-7.3-3.9-13.1-9-15.6c-4.1-2-7.9-1.9-11,0.3
		c-4.7,3.2-7.5,10.5-6.9,18.3c0.5,7.3,3.9,13,9.1,15.6c2,1,3.9,1.4,5.6,1.4c1.9,0,3.7-0.5,5.3-1.6C85,280.7,87.7,273.3,87.1,265.4z
		 M135.9,276.5c-2.2,8-7.4,7.9-12.9,7.9c-0.5,0-1.1,0-1.6,0c-1.8,0-3-1.2-3-3.2c0-5.8,0-10.6-0.1-14.5c-0.1-16-0.1-16.9,2.8-17.4
		c0.8-0.1,1.5-0.1,1.9-0.1c0.4,0,0.7,0,0.8-0.1c0.1-0.1,0.1-0.3,0.1-0.8c0-0.4-0.1-0.7-0.2-0.9c-3.8,0-6.8,0-8.9,0
		c-4.9,0-6.6,0-6.8,0.2c-0.1,0.1-0.1,0.2,0,0.4c0,0.1,0,0.2,0,0.3c0,0.5,0,0.7,0.1,0.8c0.1,0.1,0.4,0.1,0.8,0.1c0.4,0,1.1,0,1.9,0.1
		c1.3,0.2,2.3,1.1,2.6,2.4c0.3,1.4,0.5,29.2-0.3,31.1c-0.8,1.9-2.9,1.9-4.9,1.9c-0.1,0.2-0.2,0.5-0.2,0.8c0,0.4,0.1,0.7,0.2,0.8
		h27.9c0.7-3.3,1.2-6.5,1.5-9.7C137.1,276.5,136.5,276.4,135.9,276.5z M152.3,286.3c-0.1-0.1-0.1-0.2-0.1-0.5l0-0.2
		c0-0.8,0-0.8,0.9-0.9c0.3,0,0.7,0,1.1,0c3.8-0.3,3.8-1.5,3.6-16.2c0-3.6-0.1-8.2-0.1-13.8c0-4.4-0.5-5.6-5.4-5.6
		c-0.1-0.2-0.2-0.5-0.2-0.9c0-0.4,0.1-0.7,0.2-0.9c3.3,0,6.1,0,8.4,0c11.6-0.1,13.4-0.1,17.5,1.7c9.7,4.1,14.6,14.1,12,24.4
		c-3.3,13.4-16.4,13.2-26.8,13c-1.2,0-2.3,0-3.3,0c-1.7,0-3.1,0-4.1,0C153.5,286.5,152.5,286.5,152.3,286.3z M163.1,283.3l0.1-0.1
		L163.1,283.3L163.1,283.3c0.8,1.2,3.9,1.5,6.4,1.5c9.5,0,13.4-4.6,15-8.4c3.1-7.4,0.1-18.1-4.6-22.8c-3.8-3.8-11.7-5.3-15.2-3.9
		c-1.3,0.5-2,1.4-2,2.6c0,8.5,0,14.6,0,19C162.6,282.6,162.6,282.6,163.1,283.3z M210.8,286.5c1.1,0,2.4,0,4.1,0c1.7,0,3,0,4.1,0
		c2.6,0,3.5,0,3.8-0.2c0.1-0.1,0.1-0.2,0.1-0.5l0-0.2c0-0.8,0-0.8-0.9-0.8c-0.3,0-0.7,0-1.1,0c-3.7-0.3-3.7-1.3-3.6-16.9
		c0-3.5,0.1-7.8,0.1-13.1c0-4.4,0.5-5.6,5.4-5.6c0.1-0.2,0.2-0.5,0.2-0.9c0-0.4-0.1-0.7-0.2-0.9h-15.6c-0.1,0.2-0.2,0.5-0.2,0.9
		c0,0.4,0.1,0.7,0.2,0.9c4.8,0,5.4,1.1,5.4,5.6c0,5.3,0,9.6,0.1,13.2c0.1,15.6,0.1,16.5-3.6,16.8c-0.5,0-0.8,0-1.1,0
		c-0.8,0-0.9,0-0.9,0.9l0,0.2c0,0.3,0,0.4,0.1,0.5C207.3,286.5,208.2,286.5,210.8,286.5z M279,249.3l0.5,0c0.1-0.2,0.2-0.5,0.2-0.9
		c0-0.4-0.1-0.7-0.2-0.9h-13.4c-0.1,0.2-0.2,0.5-0.2,0.9c0,0.4,0.1,0.7,0.2,0.9l0.5,0.1c5,0.5,5,0.5,4.9,15.5c0,2.9-0.1,6.6-0.1,11
		l0,0.3c0,0.9,0,1.5-0.3,1.6c-0.7,0.3-2.3-1.9-10.2-12.1c-3.3-4.4-7.9-10.3-13.9-18.1H239c-0.1,0.2-0.2,0.5-0.2,0.9
		c0,0.9,0.2,0.9,0.7,0.9c0.6,0,1.5,0.1,2.7,1.2l0.2,0.2c1.6,1.4,1.6,1.4,1.5,14.4c0,3.5,0,7.8,0,13.4c0,5.3-0.9,5.9-5.4,6.3
		c-0.1,0.2-0.2,0.5-0.2,0.9c0,0.4,0.1,0.7,0.2,0.8h13.4c0.1-0.2,0.2-0.5,0.2-0.8c0-0.4-0.1-0.7-0.2-0.9c-3.8-0.4-4.3-0.9-4.9-2.3
		c-0.7-1.7-0.5-23.7-0.4-24.9c0.1-0.4,0.2-0.7,0.4-0.7c0,0,0.1,0,0.1,0c0.5,0,1.1,0.7,2.2,2c5.3,6.7,9.4,12,12.4,15.8
		c9.7,12.3,9.8,12.4,10.9,12.4l0.1,0c1.2,0,1.3-1.3,1.3-1.7c0-7.1-0.1-12.7-0.1-17.2C273.8,249.7,273.8,249.7,279,249.3z
		 M332.8,268.1H320c-0.1,0.2-0.2,0.5-0.2,1c0,0.4,0.1,0.8,0.2,1c5.3,0.4,5.3,0.8,5.1,7.1c0,1.3-0.1,3-0.1,4.9v0.1l0,0
		c-3.1,2.9-9.1,3.8-13.9,2.2c-10.3-3.5-13.5-15.2-10.6-24.6c1.2-3.9,3.5-7.2,6.4-9.1c3.3-2.2,7.4-2.7,11.9-1.4
		c4.5,1.3,7.2,4.2,8.8,9.6l1.8-0.3c-0.5-2.5-1-5.6-1.3-9.1c-1.3,0-2.7-0.5-4.3-1.1c-2.4-0.8-5.1-1.8-8.6-1.8c-1.6,0-3.4,0.2-5.4,0.7
		c-7.3,1.9-12.8,7.2-14.8,14.4c-2.5,8.9,0.4,17.1,7.8,21.8c8.6,5.5,20.1,4.7,28-2c-0.6-0.5-0.9-1.1-0.9-1.7c0-1.3,0-2.4,0-3.4
		c-0.1-4.5-0.1-6.1,2.9-6.4c0.1-0.2,0.2-0.5,0.2-1C333,268.7,333,268.3,332.8,268.1z M390.8,276.5c-1.5,5.4-4.6,7.8-10,7.8
		c-0.8,0-1.5,0-2.2,0c-2.1,0.1-3.4,0.1-4.2-0.7c-1.3-1.3-1.3-4.9-1.2-14.3c0.1-3.8,0.1-8.6,0.1-14.6c0-4.7,0.8-5.6,5.4-5.6
		c0.1-0.2,0.2-0.5,0.2-0.9c0-0.4-0.1-0.7-0.2-0.9c-3.8,0-6.8,0-8.9,0c-4.9,0-6.6,0-6.8,0.2c-0.1,0.1-0.1,0.2,0,0.4
		c0,0.1,0,0.2,0,0.3c0,0.5,0,0.7,0.1,0.8c0.1,0.1,0.4,0.1,0.8,0.1c0.4,0,1.1,0,1.9,0.1c1.3,0.2,2.3,1.1,2.6,2.4
		c0.3,1.4,0.5,29.2-0.3,31.1c-0.8,1.9-2.9,1.9-4.9,1.9c-0.1,0.2-0.2,0.5-0.2,0.8c0,0.4,0.1,0.7,0.2,0.8H391c0.7-3.3,1.2-6.5,1.5-9.7
		C392,276.5,391.4,276.4,390.8,276.5z M411,286.5c1.1,0,2.4,0,4.1,0c1.7,0,3,0,4.1,0c2.6,0,3.5,0,3.8-0.2c0.1-0.1,0.1-0.2,0.1-0.5
		l0-0.2c0-0.8,0-0.8-0.9-0.8c-0.3,0-0.7,0-1.1,0c-3.7-0.3-3.7-1.3-3.6-16.9c0-3.5,0.1-7.8,0.1-13.1c0-4.4,0.5-5.6,5.4-5.6
		c0.1-0.2,0.2-0.5,0.2-0.9c0-0.4-0.1-0.7-0.2-0.9h-15.6c-0.1,0.2-0.2,0.5-0.2,0.9c0,0.4,0.1,0.7,0.2,0.9c4.8,0,5.4,1.1,5.4,5.6
		c0,5.3,0,9.6,0.1,13.2c0.1,15.6,0.1,16.5-3.6,16.8c-0.5,0-0.8,0-1.1,0c-0.8,0-0.9,0-0.9,0.9l0,0.2c0,0.3,0,0.4,0.1,0.5
		C407.4,286.5,408.4,286.5,411,286.5z M464.5,247.3c-1.3,0.2-1.4,0.2-13.1,0.2c-3.3,0-7.6,0-13,0c-0.1,0.2-0.2,0.5-0.2,0.9
		c0,0.9,0.1,0.9,0.8,0.9c0.4,0,0.8,0,1.5,0.1c2.2,0.3,3.2,1,3.2,5.5c0,5.1,0,9.3,0.1,12.7c0.1,16,0.1,16.9-3.6,17.3
		c-0.5,0-0.8,0-1.1,0c-0.8,0-0.9,0-0.9,0.9c0,0.1,0,0.2,0,0.3c0,0.2,0,0.3,0,0.4c0.3,0.3,1.9,0.3,6.7,0.2c2.2,0,5.2,0,9.1,0
		c0.1-0.2,0.2-0.5,0.2-0.8c0-0.4-0.1-0.7-0.2-0.8c-2.2,0-3.5-0.2-4.3-1c-1.3-1.3-1.2-4-1.1-10.6c0-1.8,0-3.9,0-6.3v-0.1h0.1
		c0.7,0,1.4,0,2.1,0c7.7,0,9,0,9.2,4.2c0.3,0.3,1.4,0.3,1.7,0l0-0.3c-0.1-4.7-0.1-5.4,0-10.1c-0.2-0.1-0.4-0.2-0.8-0.2
		c-0.7,0-0.8,0.5-1,1.4c-0.2,1.2-0.4,2.9-3.4,2.9h-8v-0.1c0-2.8,0-5.1-0.1-6.9c-0.1-4.7-0.1-6.6,0.7-7.5c0.6-0.6,1.8-0.6,3.6-0.6
		c0.6,0,1.2,0,2,0c6.1,0,7.9,2.1,9.4,6.6c0.6,0,1.1-0.1,1.6-0.2l0-0.1C465.2,250.1,464.7,247.6,464.5,247.3z M492.7,286.5
		c4.1,0,9.6,0,17.1,0c1-3.4,1.7-6.7,2.2-9.9c-0.6-0.3-1.2-0.4-1.9-0.3c-2.3,8.3-5.9,8.2-12.9,8c-1.1,0-2.2,0-3.4,0
		c-0.7,0-1.2-0.1-1.5-0.5c-0.9-0.9-0.9-3.3-0.8-9.7c0-2,0-4.4,0-7.2v-0.1h0.1c0.7,0,1.4,0,2,0c7.7,0,8.9,0,9.2,4.2
		c0.3,0.3,1.4,0.3,1.7,0l0-0.3c-0.1-4.7-0.1-5.4,0-10.1c-0.2-0.1-0.5-0.2-0.9-0.2c-0.9,0-0.9,0-0.9,0.8c0,0.2,0,0.5-0.1,0.8
		c-0.3,2.8-1.7,2.8-7.5,2.7c-1,0-2.2,0-3.5,0h-0.1v-0.1c0-2.5,0-4.6-0.1-6.3c-0.1-4.8-0.1-7.1,0.9-8c0.8-0.8,2.2-0.7,4.8-0.7
		c0.9,0,2,0.1,3.2,0.1c4.4,0,5.6,2.1,7,6.6c0.6,0.1,1.2,0,1.8-0.3c-0.2-1.4-1.1-7.5-1.3-8.6h-26.4c-0.1,0.2-0.2,0.5-0.2,0.9
		c0,0.9,0.1,0.9,0.8,0.9c0.4,0,0.8,0,1.5,0.1c2.2,0.3,3.2,1,3.2,5.5c0,5.1,0,9.3,0.1,12.7c0.1,16,0.1,16.9-3.6,17.3
		c-0.5,0-0.8,0-1.1,0c-0.8,0-0.9,0-0.9,0.9c0,0.1,0,0.2,0,0.3c0,0.1,0,0.2,0,0.3C481.3,286.6,483.7,286.6,492.7,286.5z"/>
	<g>
		
			<linearGradient id="SVGID_1_" gradientUnits="userSpaceOnUse" x1="154.9496" y1="350.056" x2="399.0182" y2="272.5179" gradientTransform="matrix(1 0 0 1 2.0002 -1.308355e-05)">
			<stop  offset="0" style="stop-color:#FFDF73"/>
			<stop  offset="5.734796e-02" style="stop-color:#F2C861"/>
			<stop  offset="0.1272" style="stop-color:#E9B250"/>
			<stop  offset="0.2061" style="stop-color:#E4A649"/>
			<stop  offset="0.2814" style="stop-color:#E29F46"/>
			<stop  offset="0.3566" style="stop-color:#E3A147"/>
			<stop  offset="0.457" style="stop-color:#E8AC4D"/>
			<stop  offset="0.6004" style="stop-color:#F4CB63"/>
			<stop  offset="0.69" style="stop-color:#FFE177"/>
			<stop  offset="0.7545" style="stop-color:#FFE884"/>
			<stop  offset="0.8118" style="stop-color:#FFE884"/>
			<stop  offset="0.9158" style="stop-color:#FFE172"/>
			<stop  offset="0.9427" style="stop-color:#FDDE6E"/>
			<stop  offset="0.967" style="stop-color:#F7D363"/>
			<stop  offset="0.9902" style="stop-color:#EDC151"/>
			<stop  offset="1" style="stop-color:#E8B747"/>
		</linearGradient>
		<path class="st1" d="M221.2,324.1c-7.9,0-7.2-12.1-0.1-12.1C229,312,228.7,324.1,221.2,324.1z M220,323.1
			c5.4,2.6,7.2-7.8,2.6-10.1C217.2,310.4,215.2,320.8,220,323.1z M239.6,312.8c-0.9-0.9,1.7-0.6,4-0.6c0.1,0.1,0.1,0.5,0,0.6
			c-2,0.2-1.6-0.3-1.6,10.7c0,3.2-8-9.6-8.2-8.2c-0.1,0.4-0.1,6.9,0.1,7.4c0.2,0.6,0.8,0.6,1.4,0.7c0.8,0.8-1.6,0.6-4,0.6
			c-0.1-0.1-0.1-0.5,0-0.6c1.3-0.1,1.6-0.3,1.6-1.8c0-6.5,0.6-8.7-1.4-8.7c-0.1-0.1-0.1-0.5,0-0.6h2.4c7.5,9.6,7.2,9.6,7.2,8.4
			C241.2,312.7,241.5,313,239.6,312.8z M248.1,323.3c0.6,0,1.2,0,1.4-0.6c0.2-0.6,0.1-8.8,0.1-9.2c-0.1-0.4-0.4-0.6-0.7-0.7
			c-0.5-0.1-0.9,0.1-0.9-0.3c0-0.1,0-0.2,0.1-0.3c0.5,0,4.2,0,4.7,0c0.1,0.1,0.1,0.2,0.1,0.3c0,0.4-0.3,0.3-0.9,0.3
			c-1.1,0.2-0.8,1.3-0.8,9.4c0,0.5,0.3,0.9,0.8,0.9c1.8,0,3.5,0.3,4.3-2.3c0.2,0,0.4,0,0.6,0.1c-0.1,1-0.3,2-0.5,3
			C251,323.9,247.1,324.3,248.1,323.3z M264.7,323.1c0.4,0.5,1.3,0,1.3,0.6c0,0.1,0,0.2-0.1,0.3c-0.5,0-4.2,0-4.7,0
			c-0.1-0.1-0.1-0.1-0.1-0.3c0-0.5,0.9-0.1,1.3-0.6c0.5-0.5,0.3-1.6,0.3-8.6c0-1.3-0.2-1.6-1.6-1.6c-0.9-0.9,1.7-0.6,4.7-0.6
			c0.1,0.1,0.1,0.5,0,0.6c-1.4,0-1.6,0.3-1.6,1.6C264.4,321.5,264.2,322.6,264.7,323.1z M278.8,312.8c-0.9-0.9,1.7-0.6,4-0.6
			c0.1,0.1,0.1,0.5,0,0.6c-2,0.2-1.6-0.3-1.6,10.7c0,3.2-8-9.6-8.2-8.2c-0.1,0.4-0.1,6.9,0.1,7.4c0.2,0.6,0.8,0.6,1.4,0.7
			c0.8,0.8-1.6,0.6-4,0.6c-0.1-0.1-0.1-0.5,0-0.6c1.3-0.1,1.6-0.3,1.6-1.8c0-6.5,0.6-8.7-1.4-8.7c-0.1-0.1-0.1-0.5,0-0.6h2.4
			c7.5,9.6,7.2,9.6,7.2,8.4C280.4,312.7,280.7,313,278.8,312.8z M293.3,317.2c0.5-0.4-0.1-1.1,0.6-1.1c0.1,0,0.2,0,0.3,0.1
			c0,1.5,0,1.6,0,3.1c-0.1,0.1-0.5,0.1-0.6,0c-0.1-1.4-0.5-1.2-3.3-1.2c0,3.4-0.4,5.1,0.6,5.1c2.6,0,4,0.6,4.8-2.4
			c0.2-0.1,0.4,0,0.6,0.1c-0.1,1-0.4,2-0.7,3c-2.8,0-5.2,0-8.5,0c-0.1-0.1-0.1-0.1-0.1-0.3c0-0.4,0.2-0.3,0.6-0.3
			c0.6-0.1,0.9-0.3,1-1c0.1-0.5,0.2-8.5-0.2-9.1c-0.3-0.7-1.5-0.1-1.5-0.7c0-0.1,0-0.2,0.1-0.3c0,0,7.9,0,7.9,0
			c0.1,0.2,0.4,2.4,0.4,2.6c-0.2,0.1-0.4,0.1-0.6,0.1c-0.2-0.7-0.4-1.3-1-1.7c-0.6-0.4-3.2-0.3-3.4,0c-0.3,0.4-0.2,3.7-0.2,4.2
			C290.9,317.4,292.9,317.5,293.3,317.2z"/>
	</g>
	<g>
		
			<linearGradient id="SVGID_2_" gradientUnits="userSpaceOnUse" x1="56.7074" y1="102.9093" x2="355.4296" y2="107.5768" gradientTransform="matrix(1 0 0 1 2.0002 -1.308355e-05)">
			<stop  offset="0" style="stop-color:#CFAA27"/>
			<stop  offset="1.539418e-02" style="stop-color:#DABC39"/>
			<stop  offset="3.685169e-02" style="stop-color:#E4CE4B"/>
			<stop  offset="5.931747e-02" style="stop-color:#EBD955"/>
			<stop  offset="8.422925e-02" style="stop-color:#EDDD59"/>
			<stop  offset="0.1882" style="stop-color:#F4E86D"/>
			<stop  offset="0.2455" style="stop-color:#F4E86D"/>
			<stop  offset="0.31" style="stop-color:#EDDC60"/>
			<stop  offset="0.3996" style="stop-color:#E0C249"/>
			<stop  offset="0.543" style="stop-color:#CF9F2E"/>
			<stop  offset="0.6434" style="stop-color:#C99226"/>
			<stop  offset="0.7186" style="stop-color:#C89025"/>
			<stop  offset="0.7939" style="stop-color:#CA9729"/>
			<stop  offset="0.8728" style="stop-color:#D1A531"/>
			<stop  offset="0.9427" style="stop-color:#DDBE46"/>
			<stop  offset="1" style="stop-color:#EBD95C"/>
		</linearGradient>
		<path class="st2" d="M230.6,166.9c-24.7,22.8-53.3,18.3-46.6,3.8c7.4-12.2,31.5-15.6,46.3-16c-0.6,1.5-1.6,3.2-2.3,4.6
			c-12.4,0.6-21.6,2.3-31.5,8.7c-26,16.7,32.5,17.6,45.3-33.4c-32.5,27.4-62.3,4.5-46-32.1c-4.4-4.7-6.2-9.9-5.8-15
			c-10.7,14-16.8,30.4-17.5,46.7C167,60.9,250.9,16.9,308,60.9c-32.4-19.8-78-13.4-108.3,15.7c-5.7,5.4-6.9,13.7-1.4,21.1
			c10.7-19.1,30.4-27.3,45.1-25.1c25.3,3.9,24.4,31-2.5,38.5c-10.9,3.1-24.8,2.7-35.2-2.4c0.5-1.2,1.2-2.7,1.9-4.1
			c2,1.1,4.1,1.9,6.4,2.4c33.5,8.2,54.7-22.1,33.1-28.9c-11.8-3.7-31.7,3.1-43.9,29.1c0,0,0,0-0.1,0c0,0-0.6,1.5-0.6,1.5
			c-7.6,18.8-1.7,37,19,31.8c7.4-1.9,15.7-6.8,17.6-11.3c5-11.6,11.2-10.4,12.6-6c2.5,6.4-7.6,25.1-11.4,31.4l3.7-0.1
			c-0.7,2.2-3.4,4.4-6.2,4.4C235.6,162.2,230.8,166.9,230.6,166.9z M340.7,123.3c-0.8,15.6-6.4,30.6-15.1,43.1
			c-5.8,8.8-14.5,6.6-23,2.6c-2.3-1.1-22.8-12.6-23.8-11c2.3-3.8,9.6-21,13.3-28.9c41.5-89,45.9-22.2,6-7.8c-0.8,1.8-1.3,3.6-1.7,5
			c20.6-5.4,33.8-24.6,35.1-37.3c1-9.8-7.6-15.6-17.9-9.2c-11.8,7.3-17.6,26.2-24.4,43.5c-13.1,1.3-18.5-4.8-18.5-11.8
			c2.5-5.8-7.3-1.7-5.1,4.4c3,6.4,10.6,11.4,21.4,11.6c-6.2,12.5-11.2,26.8-17.8,35.4c-8.5,11.5-19.9,16.1-26.8,12.2
			c-7.6-4.4,6.4-14.4,23.7-12.6c1.5-1.8,3.2-4.1,4.2-6.1c-15.6-1.7-34,4-34,14.5c0,11.1,20,18.7,38.6-6.9
			c2.4-3.2,30.9,13.2,41.7,13.6c-25.6,26.8-66.7,38.2-101.3,23.7C272.6,233.5,344.2,190,340.7,123.3z M305.2,37.9
			c0,0.7,0.3,1.4,0.7,1.9c-2.9,2.4-7.2,5.9-10.8,5.2c-5.5-2.7-5.4-15.5-5.1-21.6c5.1,0.3,5.2-7.3,0.2-7.3c-3.8,0-5.1,5.2-1.7,6.9
			c-17.7,35.8-28.4,5.9-30.3-14.4c5.1-1.2,4.2-8.7-1-8.7c-5.1,0-6.1,7.2-1.2,8.6c-1.9,19.9-12.4,50.6-30.3,14.5
			c3.5-1.8,2.2-6.9-1.7-6.9c-5,0-4.8,7.6,0.2,7.3c0.3,6.2,0.4,18.9-5.1,21.6c-3.6,0.7-7.9-2.8-10.8-5.2c1.7-1.9,0.3-4.9-2.2-4.9
			c-5,0-2.9,8.2,1.6,5.4c11.1,15.7,22.2,5.1,18.6-13.4c12.2,32.3,32.9,10.2,30.3-18.4c0.7,0.1,0.6,0.1,1.1,0
			C255.1,36.4,275.5,60,288,27c-3.5,18,7.2,29.3,18.6,13.4c2,1.2,4.5-0.2,4.5-2.5C311.1,34,305.2,34,305.2,37.9z"/>
	</g>
</g>
</svg>
